<svg width="24" height="24" viewBox="0 0 24 24" fill="none" xmlns="http://www.w3.org/2000/svg">
<g clip-path="url(#clip0_1641_272)">
<path d="M8.71875 21.1406H15.2812C15.6696 21.1406 15.9844 20.8258 15.9844 20.4375V19.5C15.9844 18.0389 15.1933 16.7596 14.0174 16.0662C14.509 15.5595 14.8125 14.8694 14.8125 14.1094C14.8125 12.5586 13.5508 11.2969 12 11.2969C10.4492 11.2969 9.1875 12.5586 9.1875 14.1094C9.1875 14.8694 9.49102 15.5595 9.98264 16.0662C8.80673 16.7596 8.01562 18.0389 8.01562 19.5V20.4375C8.01562 20.8258 8.33044 21.1406 8.71875 21.1406ZM10.5938 14.1094C10.5938 13.334 11.2246 12.7031 12 12.7031C12.7754 12.7031 13.4062 13.334 13.4062 14.1094C13.4062 14.8848 12.7754 15.5156 12 15.5156C11.2246 15.5156 10.5938 14.8848 10.5938 14.1094ZM9.42188 19.5C9.42188 18.0784 10.5784 16.9219 12 16.9219C13.4216 16.9219 14.5781 18.0784 14.5781 19.5V19.7344H9.42188V19.5Z" fill="#00507C"/>
<path d="M21.4219 2.8125H21.3188C21.2166 2.17486 20.9763 1.58466 20.6165 1.10503C20.0899 0.40275 19.3412 0 18.5625 0C17.7838 0 17.0351 0.40275 16.5085 1.10503C16.1487 1.58466 15.9083 2.17486 15.8062 2.8125H14.7564C14.6542 2.17486 14.4138 1.58466 14.0541 1.10503C13.5274 0.40275 12.7787 0 12 0C11.2213 0 10.4726 0.40275 9.94598 1.10503C9.58622 1.58466 9.34589 2.17486 9.24366 2.8125H8.19389C8.09166 2.17486 7.85133 1.58466 7.49156 1.10503C6.96488 0.40275 6.21619 0 5.4375 0C4.65881 0 3.91013 0.40275 3.38348 1.10503C3.02372 1.58466 2.78339 2.17486 2.68116 2.8125H2.57812C1.15655 2.8125 0 3.96905 0 5.39062V21.4219C0 22.8435 1.15655 24 2.57812 24H21.4219C22.8435 24 24 22.8435 24 21.4219V5.39062C24 3.96905 22.8435 2.8125 21.4219 2.8125ZM18.5625 1.40625C19.1613 1.40625 19.687 2.0025 19.8849 2.8125H17.2401C17.438 2.0025 17.9637 1.40625 18.5625 1.40625ZM12 1.40625C12.5988 1.40625 13.1245 2.0025 13.3224 2.8125H10.6776C10.8755 2.0025 11.4012 1.40625 12 1.40625ZM5.4375 1.40625C6.03633 1.40625 6.56198 2.0025 6.75994 2.8125H4.11506C4.31302 2.0025 4.83867 1.40625 5.4375 1.40625ZM1.40625 5.39062C1.40625 4.74445 1.93195 4.21875 2.57812 4.21875H2.68116C2.78339 4.85639 3.02372 5.44659 3.38348 5.92622C3.91013 6.6285 4.65881 7.03125 5.4375 7.03125C5.82581 7.03125 6.14062 6.71644 6.14062 6.32812C6.14062 5.93981 5.82581 5.625 5.4375 5.625C4.83867 5.625 4.31302 5.02875 4.11506 4.21875H9.24361C9.34584 4.85639 9.58617 5.44659 9.94594 5.92622C10.4726 6.6285 11.2213 7.03125 12 7.03125C12.3883 7.03125 12.7031 6.71644 12.7031 6.32812C12.7031 5.93981 12.3883 5.625 12 5.625C11.4012 5.625 10.8755 5.02875 10.6776 4.21875H15.8061C15.9083 4.85639 16.1487 5.44659 16.5084 5.92622C17.0351 6.6285 17.7838 7.03125 18.5625 7.03125C18.9508 7.03125 19.2656 6.71644 19.2656 6.32812C19.2656 5.93981 18.9508 5.625 18.5625 5.625C17.9637 5.625 17.438 5.02875 17.2401 4.21875H21.4219C22.068 4.21875 22.5938 4.74445 22.5938 5.39062V8.4375H1.40625V5.39062ZM22.5938 21.4219C22.5938 22.068 22.068 22.5938 21.4219 22.5938H2.57812C1.93195 22.5938 1.40625 22.068 1.40625 21.4219V9.84375H22.5938V21.4219Z" fill="#00507C"/>
</g>
<defs>
<clipPath id="clip0_1641_272">
<rect width="24" height="24" fill="white"/>
</clipPath>
</defs>
</svg>
