<svg width="24" height="24" viewBox="0 0 24 24" fill="none" xmlns="http://www.w3.org/2000/svg">
<g clip-path="url(#clip0_1642_347)">
<path d="M16.2364 15.3667C16.2364 19.6381 12.7601 23.1007 8.47174 23.1007C4.18341 23.1007 0.707031 19.638 0.707031 15.3667C0.707031 11.0953 8.47174 3.33594 8.47174 3.33594C8.47174 3.33594 16.2364 11.0953 16.2364 15.3667Z" stroke="#00507C" stroke-width="1.41176" stroke-miterlimit="10"/>
<path d="M15.7586 18.0451C16.1421 18.1204 16.5378 18.1599 16.9426 18.1599C20.4513 18.1599 23.2955 15.1919 23.2955 11.5308C23.2955 7.86957 16.9426 1.21875 16.9426 1.21875C16.9426 1.21875 13.9882 4.31193 12.1087 7.4404M8.47197 18.1599V12.5129M5.64844 15.3364H11.2955M19.7661 12.5129H15.4466" stroke="#00507C" stroke-width="1.41176" stroke-miterlimit="10"/>
</g>
<defs>
<clipPath id="clip0_1642_347">
<rect width="24" height="24" fill="white"/>
</clipPath>
</defs>
</svg>
