<svg width="30" height="30" viewBox="0 0 30 30" fill="none" xmlns="http://www.w3.org/2000/svg">
<path d="M29.0019 6.87402C28.403 6.24664 27.576 5.87592 26.635 5.87592H21.9011V5.81889C21.9011 5.10596 21.616 4.42155 21.1312 3.96527C20.6464 3.48048 19.9905 3.19531 19.2776 3.19531H10.7224C9.98099 3.19531 9.3251 3.48048 8.8403 3.96527C8.35551 4.45007 8.07034 5.10596 8.07034 5.81889V5.87592H3.36502C2.42395 5.87592 1.59696 6.24664 0.998099 6.87402C0.39924 7.47288 0 8.32839 0 9.24094V23.4425C0 24.3835 0.370722 25.2105 0.998099 25.8094C1.59696 26.4082 2.45247 26.8075 3.36502 26.8075H26.635C27.576 26.8075 28.403 26.4368 29.0019 25.8094C29.6008 25.2105 30 24.355 30 23.4425V9.24094C30 8.29988 29.6293 7.47288 29.0019 6.87402ZM28.5171 23.4425H28.4886C28.4886 23.9558 28.289 24.412 27.9468 24.7542C27.6046 25.0965 27.1483 25.2961 26.635 25.2961H3.36502C2.85171 25.2961 2.39544 25.0965 2.05323 24.7542C1.71103 24.412 1.51141 23.9558 1.51141 23.4425V9.24094C1.51141 8.72763 1.71103 8.27136 2.05323 7.92915C2.39544 7.58695 2.85171 7.38733 3.36502 7.38733H8.86882C9.29658 7.38733 9.63878 7.04512 9.63878 6.61737V5.79037C9.63878 5.47668 9.75285 5.19151 9.95247 4.99189C10.1521 4.79227 10.4373 4.6782 10.751 4.6782H19.2776C19.5913 4.6782 19.8764 4.79227 20.076 4.99189C20.2757 5.19151 20.3897 5.47668 20.3897 5.79037V6.61737C20.3897 7.04512 20.7319 7.38733 21.1597 7.38733H26.6635C27.1768 7.38733 27.6331 7.58695 27.9753 7.92915C28.3175 8.27136 28.5171 8.72763 28.5171 9.24094V23.4425Z" fill="#00507C"/>
<path d="M14.9996 9.32812C13.0604 9.32812 11.2924 10.1266 10.0376 11.3814C8.75434 12.6646 7.98438 14.4042 7.98438 16.3433C7.98438 18.2825 8.78285 20.0506 10.0376 21.3053C11.3209 22.5886 13.0604 23.3585 14.9996 23.3585C16.9387 23.3585 18.7068 22.5601 19.9616 21.3053C21.2448 20.022 22.0148 18.2825 22.0148 16.3433C22.0148 14.4042 21.2163 12.6361 19.9616 11.3814C18.7068 10.1266 16.9387 9.32812 14.9996 9.32812ZM18.8779 20.2502C17.8798 21.2198 16.511 21.8471 14.9996 21.8471C13.4882 21.8471 12.1194 21.2198 11.1213 20.2502C10.1232 19.2521 9.5243 17.8833 9.5243 16.3719C9.5243 14.8604 10.1517 13.4916 11.1213 12.4935C12.1194 11.4954 13.4882 10.8966 14.9996 10.8966C16.511 10.8966 17.8798 11.5239 18.8779 12.4935C19.876 13.4916 20.4749 14.8604 20.4749 16.3719C20.5034 17.8833 19.876 19.2521 18.8779 20.2502Z" fill="#00507C"/>
<path d="M25.1512 12.0916C25.923 12.0916 26.5486 11.4659 26.5486 10.6942C26.5486 9.92249 25.923 9.29688 25.1512 9.29688C24.3795 9.29688 23.7539 9.92249 23.7539 10.6942C23.7539 11.4659 24.3795 12.0916 25.1512 12.0916Z" fill="#00507C"/>
</svg>
