<svg width="43" height="43" viewBox="0 0 43 43" fill="none" xmlns="http://www.w3.org/2000/svg">
<g clip-path="url(#clip0_1596_549)">
<path d="M39.8506 13.3236H36.9971C36.6493 13.3236 36.3672 13.6056 36.3672 13.9535C36.3672 14.3014 36.6493 14.5834 36.9971 14.5834H39.8506C40.8926 14.5834 41.7402 15.431 41.7402 16.473V41.6982C41.7402 41.7214 41.7214 41.7402 41.6982 41.7402H34.6872V39.2207H37.9048C38.6194 39.2207 39.2033 38.6394 39.2066 37.9248L39.2207 34.8233C39.2273 34.1115 38.6286 33.5121 37.9189 33.5156H34.6872V31.0326H37.9048C38.6194 31.0326 39.2033 30.4513 39.2066 29.7368L39.2207 26.6351C39.2273 25.9234 38.6286 25.3241 37.9189 25.3275H34.6872V22.808H37.9048C38.6194 22.808 39.2033 22.2266 39.2066 21.5121L39.2207 18.4105C39.2273 17.6988 38.6286 17.0994 37.9189 17.1028H34.6872V10.582C34.6872 8.8454 33.2744 7.43262 31.5378 7.43262H29.538C29.2156 3.28018 25.7337 0 21.5 0C17.2663 0 13.7844 3.28018 13.462 7.43262H11.4219C9.68525 7.43262 8.27246 8.8454 8.27246 10.582V13.3236H3.14941C1.41279 13.3236 0 14.7364 0 16.473V41.6982C0 42.4161 0.583943 43 1.30176 43H41.6982C42.4161 43 43 42.4161 43 41.6982V16.473C43 14.7364 41.5872 13.3236 39.8506 13.3236ZM34.6872 18.3627H37.9189C37.9232 18.3627 37.9364 18.3627 37.9487 18.375C37.9609 18.3874 37.9609 18.4005 37.9609 18.4048L37.9469 21.5063C37.9468 21.5294 37.9279 21.5481 37.9049 21.5481H34.6872V18.3627ZM34.6872 26.5873H37.9189C37.9232 26.5873 37.9364 26.5873 37.9487 26.5996C37.9609 26.612 37.9609 26.6251 37.9609 26.6294L37.9469 29.731C37.9468 29.754 37.9279 29.7728 37.9049 29.7728H34.6872V26.5873ZM34.6872 34.7754H37.9189C37.9232 34.7754 37.9364 34.7754 37.9487 34.7878C37.9609 34.8001 37.9609 34.8133 37.9609 34.8176L37.9469 37.9191C37.9468 37.9421 37.9279 37.9609 37.9049 37.9609H34.6872V34.7754ZM8.27246 37.9609H5.09533C5.0719 37.9609 5.05342 37.9427 5.05334 37.9194L5.03906 34.8179C5.03906 34.8135 5.03898 34.8001 5.05132 34.7878C5.06359 34.7754 5.07677 34.7754 5.08105 34.7754H8.27246V37.9609ZM8.27246 29.7725H5.09533C5.0719 29.7725 5.05342 29.7542 5.05334 29.7309L5.03906 26.6294C5.03906 26.6251 5.03898 26.612 5.05149 26.5994C5.06384 26.5869 5.07677 26.5869 5.08105 26.5869H8.27246V29.7725ZM8.27246 21.5479H5.09533C5.0719 21.5479 5.05342 21.5296 5.05334 21.5063L5.03906 18.4048C5.03906 18.4005 5.03898 18.3874 5.05149 18.3748C5.06384 18.3623 5.07677 18.3623 5.08105 18.3623H8.27246V21.5479ZM8.27246 17.1026H5.08105C4.36878 17.0986 3.773 17.6997 3.7793 18.4106L3.79357 21.5121C3.79685 22.2265 4.38079 22.8076 5.09533 22.8076H8.27246V25.3272H5.08105C4.36878 25.3232 3.773 25.9244 3.7793 26.6352L3.79357 29.7368C3.79685 30.4511 4.38079 31.0323 5.09533 31.0323H8.27246V33.5157H5.08105C4.36836 33.5118 3.773 34.1124 3.7793 34.8238L3.79357 37.9253C3.79677 38.6395 4.38079 39.2207 5.09533 39.2207H8.27246V41.7402H1.30176C1.27858 41.7402 1.25977 41.7214 1.25977 41.6982V16.473C1.25977 15.431 2.10742 14.5834 3.14941 14.5834H8.27246V17.1026ZM21.5 1.25977C25.2511 1.25977 28.3027 4.31142 28.3027 8.0625C28.3027 11.8136 25.2511 14.8652 21.5 14.8652C17.7489 14.8652 14.6973 11.8136 14.6973 8.0625C14.6973 4.31142 17.7489 1.25977 21.5 1.25977ZM27.129 41.7402H22.1299V30.6481H27.129V41.7402ZM14.6113 29.3883V28.1285H28.3888V29.3883H14.6113ZM33.4275 41.7402H28.3887V30.6481C29.0462 30.6862 29.6527 30.2053 29.6485 29.5143V28.0026C29.6485 27.3774 29.1399 26.8688 28.5147 26.8688H14.4853C13.8601 26.8688 13.3515 27.3774 13.3515 28.0026V29.5143C13.347 30.1763 13.9427 30.7169 14.6113 30.6481V35.1084C14.6113 35.4563 14.8933 35.7383 15.2411 35.7383C15.589 35.7383 15.871 35.4563 15.871 35.1084V30.6481H20.8701V41.7402H15.871V38.0479C15.871 37.7 15.589 37.418 15.2411 37.418C14.8933 37.418 14.6113 37.7 14.6113 38.0479V41.7402H9.53223V10.582C9.53223 9.54004 10.3799 8.69238 11.4219 8.69238H13.462C13.7844 12.8448 17.2663 16.125 21.5 16.125C25.7337 16.125 29.2156 12.8448 29.538 8.69238H31.5378C32.5798 8.69238 33.4275 9.54004 33.4275 10.582V41.7402ZM19.6104 9.95215V12.4717C19.6104 13.0969 20.119 13.6055 20.7441 13.6055H22.2559C22.881 13.6055 23.3896 13.0969 23.3896 12.4717V9.95215H25.9092C26.5344 9.95215 27.043 9.44354 27.043 8.81836V7.30664C27.043 6.68146 26.5344 6.17285 25.9092 6.17285H23.3896V3.65332C23.3896 3.02814 22.881 2.51953 22.2559 2.51953H20.7441C20.119 2.51953 19.6104 3.02814 19.6104 3.65332V6.17285H17.0908C16.4656 6.17285 15.957 6.68146 15.957 7.30664V8.81836C15.957 9.44354 16.4656 9.95215 17.0908 9.95215H19.6104ZM17.2168 7.43262H19.9883C20.4746 7.43262 20.8701 7.03705 20.8701 6.55078V3.7793H22.1299V6.55078C22.1299 7.03705 22.5254 7.43262 23.0117 7.43262H25.7832V8.69238H23.0117C22.5254 8.69238 22.1299 9.08795 22.1299 9.57422V12.3457H20.8701V9.57422C20.8701 9.08795 20.4746 8.69238 19.9883 8.69238H17.2168V7.43262ZM18.9805 37.4687C19.3283 37.4687 19.6104 37.1867 19.6104 36.8388V35.5496C19.6104 35.2017 19.3283 34.9197 18.9805 34.9197C18.6326 34.9197 18.3506 35.2017 18.3506 35.5496V36.8388C18.3506 37.1867 18.6326 37.4687 18.9805 37.4687ZM18.9385 18.6445H13.3706C12.656 18.6445 12.0721 19.2259 12.0689 19.9404L12.0549 23.0419C12.0473 23.75 12.6454 24.3536 13.3566 24.3496H18.9385C19.6563 24.3496 20.2402 23.7656 20.2402 23.0478V19.9463C20.2402 19.2285 19.6563 18.6445 18.9385 18.6445ZM18.9805 23.0478C18.9805 23.071 18.9617 23.0898 18.9385 23.0898H13.3565C13.3398 23.092 13.3123 23.0644 13.3145 23.0477L13.3286 19.946C13.3287 19.923 13.3475 19.9043 13.3706 19.9043H18.9385C18.9617 19.9043 18.9805 19.9231 18.9805 19.9463V23.0478ZM24.0195 37.4687C24.3674 37.4687 24.6494 37.1867 24.6494 36.8388V35.5496C24.6494 35.2017 24.3674 34.9197 24.0195 34.9197C23.6717 34.9197 23.3896 35.2017 23.3896 35.5496V36.8388C23.3896 37.1867 23.6717 37.4687 24.0195 37.4687ZM29.6233 18.6445H24.0615C23.3437 18.6445 22.7598 19.2285 22.7598 19.9463V23.0478C22.7598 23.7656 23.3437 24.3496 24.0615 24.3496H29.6092C30.3237 24.3496 30.9077 23.7682 30.911 23.0537L30.925 19.9521C30.9317 19.2405 30.3329 18.6411 29.6233 18.6445ZM29.6512 23.048C29.6511 23.071 29.6322 23.0898 29.6092 23.0898H24.0615C24.0383 23.0898 24.0195 23.071 24.0195 23.0478V19.9463C24.0195 19.9231 24.0383 19.9043 24.0615 19.9043H29.6233C29.6276 19.9043 29.6408 19.9043 29.653 19.9166C29.6653 19.929 29.6653 19.9421 29.6653 19.9464L29.6512 23.048Z" fill="#00507C"/>
</g>
<defs>
<clipPath id="clip0_1596_549">
<rect width="43" height="43" fill="white"/>
</clipPath>
</defs>
</svg>
