<svg width="43" height="43" viewBox="0 0 43 43" fill="none" xmlns="http://www.w3.org/2000/svg">
<g clip-path="url(#clip0_1614_574)">
<path d="M40.2535 12.7167H36.0101C35.9125 12.4588 35.7496 12.2284 35.5283 12.0424C35.1489 11.7237 34.6716 11.5951 34.1837 11.6805L32.7179 11.9367C32.5238 10.6192 31.3857 9.6047 30.0151 9.6047C28.6445 9.6047 27.5064 10.6192 27.3123 11.9367L25.8467 11.6805C25.359 11.5956 24.8812 11.7237 24.5021 12.0424C24.2807 12.2284 24.1179 12.4587 24.0202 12.7167H19.7768C18.4476 12.7167 17.3662 13.7981 17.3662 15.1273V40.2537C17.3662 41.5829 18.4476 42.6643 19.7768 42.6643H40.2533C41.5824 42.6643 42.6638 41.583 42.6639 40.2537V15.1273C42.6639 13.7981 41.5825 12.7167 40.2533 12.7167H40.2535ZM25.0898 13.3046C25.0898 13.1542 25.1434 13.0392 25.2585 12.9425C25.3737 12.8457 25.4963 12.8129 25.6443 12.8387L27.77 13.2102C27.8544 13.225 27.9411 13.2211 28.024 13.1988C28.1068 13.1765 28.1837 13.1363 28.2494 13.0811C28.315 13.026 28.3678 12.9571 28.404 12.8793C28.4403 12.8016 28.459 12.7169 28.459 12.6311V12.3366C28.459 11.4786 29.1571 10.7805 30.0152 10.7805C30.8733 10.7805 31.5713 11.4786 31.5713 12.3366V12.6311C31.5714 12.7168 31.5901 12.8016 31.6264 12.8793C31.6626 12.957 31.7154 13.0259 31.781 13.0811C31.8467 13.1363 31.9236 13.1764 32.0064 13.1987C32.0893 13.221 32.1759 13.225 32.2604 13.2102L34.3862 12.8387C34.5343 12.8128 34.6568 12.8458 34.772 12.9426C34.887 13.0392 34.9406 13.1543 34.9406 13.3046V15.0241H25.0899V13.3046H25.0898ZM35.5284 16.1999C35.6645 16.1999 35.7964 16.1526 35.9015 16.0662C36.0067 15.9798 36.0786 15.8597 36.1051 15.7262H39.6546V39.6548H20.3757V15.7262H23.9253C23.9517 15.8597 24.0237 15.98 24.1288 16.0664C24.234 16.1527 24.3659 16.2 24.502 16.2H35.5284V16.1999ZM41.4883 40.2536C41.4883 40.9345 40.9343 41.4884 40.2535 41.4884H19.7769C19.0961 41.4884 18.5421 40.9345 18.5421 40.2536V15.1273C18.5421 14.4465 19.0961 13.8925 19.7769 13.8925H23.9141V14.5504H19.7878C19.6319 14.5504 19.4824 14.6123 19.3721 14.7226C19.2619 14.8328 19.1999 14.9823 19.1999 15.1383V40.2427C19.1999 40.3986 19.2619 40.5482 19.3721 40.6584C19.4824 40.7687 19.6319 40.8306 19.7878 40.8306H40.2425C40.3984 40.8306 40.5479 40.7687 40.6582 40.6584C40.7684 40.5482 40.8304 40.3986 40.8304 40.2427V15.1384C40.8304 14.9824 40.7684 14.8329 40.6582 14.7226C40.5479 14.6124 40.3984 14.5505 40.2425 14.5505H36.1163V13.8926H40.2535C40.9343 13.8926 41.4883 14.4466 41.4883 15.1274V40.2536ZM29.2766 18.9224C29.2766 18.7664 29.3385 18.6169 29.4487 18.5066C29.559 18.3964 29.7085 18.3345 29.8644 18.3345H37.2741C37.3513 18.3345 37.4278 18.3497 37.4991 18.3792C37.5704 18.4088 37.6352 18.4521 37.6898 18.5066C37.7444 18.5612 37.7877 18.626 37.8173 18.6974C37.8468 18.7687 37.862 18.8451 37.862 18.9224C37.862 18.9996 37.8468 19.076 37.8173 19.1473C37.7877 19.2187 37.7444 19.2835 37.6898 19.3381C37.6352 19.3926 37.5704 19.4359 37.4991 19.4655C37.4278 19.495 37.3513 19.5102 37.2741 19.5102H29.8644C29.7085 19.5102 29.559 19.4483 29.4487 19.3381C29.3385 19.2278 29.2766 19.0783 29.2766 18.9224ZM29.2766 21.792C29.2766 21.6361 29.3385 21.4866 29.4487 21.3763C29.559 21.2661 29.7085 21.2041 29.8644 21.2041H37.2252C37.3811 21.2041 37.5306 21.2661 37.6409 21.3763C37.7511 21.4866 37.8131 21.6361 37.8131 21.792C37.8131 21.9479 37.7511 22.0975 37.6409 22.2077C37.5306 22.318 37.3811 22.3799 37.2252 22.3799H29.8644C29.7085 22.3799 29.559 22.318 29.4487 22.2077C29.3385 22.0975 29.2766 21.9479 29.2766 21.792ZM22.7563 17.6087H25.7144C25.8704 17.6087 26.0199 17.6706 26.1301 17.7809C26.2404 17.8911 26.3023 18.0406 26.3023 18.1966C26.3023 18.3525 26.2404 18.502 26.1301 18.6123C26.0199 18.7225 25.8704 18.7844 25.7144 18.7844H23.3442V21.9298H26.4896V20.6376L25.6496 21.4777C25.5858 21.5414 25.5082 21.5896 25.4229 21.6186C25.3375 21.6475 25.2466 21.6565 25.1572 21.6447C25.0678 21.6329 24.9823 21.6008 24.9073 21.5507C24.8323 21.5006 24.7699 21.434 24.7248 21.3559L23.9559 20.0241C23.8792 19.8892 23.8589 19.7294 23.8996 19.5795C23.9403 19.4297 24.0386 19.3021 24.173 19.2244C24.3074 19.1468 24.4671 19.1255 24.6172 19.1652C24.7673 19.2049 24.8956 19.3023 24.9741 19.4363L25.3599 20.1045L27.7008 17.7636C27.7554 17.709 27.8202 17.6657 27.8916 17.6362C27.9629 17.6066 28.0393 17.5914 28.1165 17.5914C28.1937 17.5914 28.2702 17.6066 28.3415 17.6361C28.4128 17.6657 28.4776 17.709 28.5322 17.7636C28.5868 17.8182 28.6301 17.883 28.6597 17.9543C28.6892 18.0256 28.7044 18.1021 28.7044 18.1793C28.7045 18.2565 28.6893 18.3329 28.6597 18.4042C28.6302 18.4756 28.5869 18.5404 28.5323 18.595L27.6655 19.4618V22.5176C27.6655 22.6736 27.6035 22.8231 27.4933 22.9333C27.383 23.0436 27.2335 23.1055 27.0776 23.1055H22.7564C22.6005 23.1055 22.451 23.0436 22.3407 22.9333C22.2305 22.8231 22.1685 22.6736 22.1685 22.5176V18.1965C22.1685 18.0406 22.2305 17.891 22.3407 17.7808C22.451 17.6705 22.6005 17.6086 22.7564 17.6086L22.7563 17.6087ZM29.2766 29.1339C29.2766 28.978 29.3385 28.8285 29.4487 28.7182C29.559 28.608 29.7085 28.546 29.8644 28.546H37.2252C37.3811 28.546 37.5306 28.608 37.6409 28.7182C37.7511 28.8285 37.8131 28.978 37.8131 29.1339C37.8131 29.2898 37.7511 29.4394 37.6409 29.5496C37.5306 29.6599 37.3811 29.7218 37.2252 29.7218H29.8644C29.7085 29.7218 29.559 29.6599 29.4487 29.5496C29.3385 29.4394 29.2766 29.2898 29.2766 29.1339ZM29.2766 26.2643C29.2766 26.1083 29.3385 25.9588 29.4487 25.8486C29.559 25.7383 29.7085 25.6764 29.8644 25.6764H37.2741C37.43 25.6764 37.5796 25.7383 37.6898 25.8486C37.8001 25.9588 37.862 26.1083 37.862 26.2643C37.862 26.4202 37.8001 26.5697 37.6898 26.68C37.5796 26.7902 37.43 26.8522 37.2741 26.8522H29.8644C29.7085 26.8522 29.559 26.7902 29.4487 26.68C29.3385 26.5697 29.2766 26.4202 29.2766 26.2643ZM28.5324 25.1056C28.6426 25.2159 28.7045 25.3654 28.7045 25.5213C28.7045 25.6772 28.6426 25.8267 28.5324 25.937L27.6656 26.8038V29.8596C27.6656 30.0156 27.6036 30.1651 27.4934 30.2753C27.3831 30.3856 27.2336 30.4475 27.0777 30.4475H22.7565C22.6006 30.4475 22.4511 30.3856 22.3408 30.2753C22.2306 30.1651 22.1686 30.0156 22.1686 29.8596V25.5384C22.1686 25.3825 22.2306 25.2329 22.3408 25.1227C22.4511 25.0124 22.6006 24.9505 22.7565 24.9505H25.7146C25.8705 24.9505 26.0201 25.0124 26.1303 25.1227C26.2406 25.2329 26.3025 25.3825 26.3025 25.5384C26.3025 25.6943 26.2406 25.8438 26.1303 25.9541C26.0201 26.0643 25.8705 26.1263 25.7146 26.1263H23.3444V29.2717H26.4898V27.9796L25.6498 28.8196C25.586 28.8833 25.5084 28.9316 25.423 28.9606C25.3376 28.9895 25.2467 28.9985 25.1573 28.9867C25.0679 28.975 24.9824 28.9428 24.9074 28.8927C24.8325 28.8426 24.77 28.7759 24.7249 28.6978L23.9561 27.3661C23.8781 27.2311 23.857 27.0707 23.8973 26.9201C23.9377 26.7695 24.0362 26.641 24.1712 26.5631C24.2381 26.5245 24.3119 26.4994 24.3884 26.4893C24.465 26.4792 24.5428 26.4843 24.6173 26.5043C24.6919 26.5242 24.7618 26.5587 24.8231 26.6057C24.8843 26.6527 24.9357 26.7114 24.9743 26.7783L25.3601 27.4464L27.701 25.1055C27.7556 25.0509 27.8204 25.0076 27.8917 24.9781C27.9631 24.9485 28.0395 24.9333 28.1167 24.9333C28.1939 24.9333 28.2704 24.9485 28.3417 24.9781C28.413 25.0076 28.4779 25.0509 28.5324 25.1055L28.5324 25.1056ZM29.2766 33.6062C29.2766 33.4503 29.3385 33.3007 29.4487 33.1905C29.559 33.0802 29.7085 33.0183 29.8644 33.0183H37.2741C37.43 33.0183 37.5796 33.0802 37.6898 33.1905C37.8001 33.3007 37.862 33.4503 37.862 33.6062C37.862 33.7621 37.8001 33.9116 37.6898 34.0219C37.5796 34.1321 37.43 34.1941 37.2741 34.1941H29.8644C29.7085 34.1941 29.559 34.1321 29.4487 34.0219C29.3385 33.9116 29.2766 33.7621 29.2766 33.6062ZM29.2766 36.4758C29.2766 36.3199 29.3385 36.1704 29.4487 36.0601C29.559 35.9499 29.7085 35.888 29.8644 35.888H37.2252C37.3811 35.888 37.5306 35.9499 37.6409 36.0601C37.7511 36.1704 37.8131 36.3199 37.8131 36.4758C37.8131 36.6318 37.7511 36.7813 37.6409 36.8915C37.5306 37.0018 37.3811 37.0637 37.2252 37.0637H29.8644C29.7085 37.0637 29.559 37.0018 29.4487 36.8915C29.3385 36.7813 29.2766 36.6318 29.2766 36.4758ZM28.5324 32.4474C28.6426 32.5577 28.7045 32.7072 28.7045 32.8631C28.7045 33.019 28.6426 33.1686 28.5324 33.2788L27.6656 34.1456V37.2016C27.6656 37.3575 27.6036 37.507 27.4934 37.6173C27.3831 37.7275 27.2336 37.7894 27.0777 37.7894H22.7565C22.6006 37.7894 22.4511 37.7275 22.3408 37.6173C22.2306 37.507 22.1686 37.3575 22.1686 37.2016V32.8803C22.1686 32.7244 22.2306 32.5749 22.3408 32.4646C22.4511 32.3544 22.6006 32.2924 22.7565 32.2924H25.7146C25.8705 32.2924 26.0201 32.3544 26.1303 32.4646C26.2406 32.5749 26.3025 32.7244 26.3025 32.8803C26.3025 33.0362 26.2406 33.1858 26.1303 33.296C26.0201 33.4063 25.8705 33.4682 25.7146 33.4682H23.3444V36.6137H26.4898V35.3215L25.6498 36.1615C25.586 36.2253 25.5084 36.2735 25.423 36.3025C25.3376 36.3315 25.2467 36.3404 25.1573 36.3286C25.0679 36.3169 24.9824 36.2847 24.9074 36.2346C24.8325 36.1845 24.77 36.1178 24.7249 36.0397L23.9561 34.7081C23.9168 34.6412 23.8913 34.5672 23.8808 34.4904C23.8702 34.4136 23.875 34.3354 23.8949 34.2605C23.9147 34.1855 23.9491 34.1152 23.9962 34.0536C24.0433 33.992 24.1021 33.9404 24.1693 33.9016C24.2364 33.8628 24.3106 33.8377 24.3874 33.8277C24.4643 33.8178 24.5424 33.8231 24.6173 33.8434C24.6921 33.8637 24.7621 33.8986 24.8234 33.9461C24.8847 33.9936 24.936 34.0528 24.9743 34.1202L25.3601 34.7883L27.701 32.4474C27.7556 32.3929 27.8204 32.3495 27.8917 32.32C27.9631 32.2904 28.0395 32.2752 28.1167 32.2752C28.1939 32.2752 28.2704 32.2904 28.3417 32.32C28.413 32.3495 28.4778 32.3929 28.5324 32.4474ZM9.90766 18.8696V17.3965H11.3807C11.5366 17.3965 11.6861 17.3346 11.7964 17.2243C11.9066 17.1141 11.9685 16.9646 11.9685 16.8086V14.8497H15.1689C15.2505 14.8497 15.3312 14.8327 15.4059 14.7997C15.4807 14.7668 15.5477 14.7186 15.6028 14.6584C15.6578 14.5981 15.6998 14.527 15.7259 14.4497C15.752 14.3723 15.7617 14.2904 15.7544 14.2091C15.5817 12.2925 14.7034 10.5174 13.2814 9.21065C12.4581 8.45384 11.4803 7.88494 10.4155 7.54331C11.4004 6.81516 12.0405 5.64619 12.0405 4.33007C12.0405 2.12766 10.2487 0.335938 8.04631 0.335938C5.8439 0.335938 4.05227 2.12783 4.05227 4.33023C4.05227 5.64627 4.69231 6.81533 5.6772 7.54339C4.6124 7.885 3.63454 8.45391 2.81131 9.21073C1.38912 10.5174 0.510896 12.2925 0.338308 14.2091C0.330983 14.2905 0.340678 14.3724 0.366775 14.4498C0.392873 14.5272 0.4348 14.5982 0.489886 14.6585C0.544973 14.7188 0.612009 14.7669 0.686725 14.7998C0.76144 14.8328 0.842196 14.8498 0.923847 14.8498H4.12407V16.8087C4.12407 16.9646 4.18601 17.1142 4.29626 17.2244C4.40651 17.3347 4.55604 17.3966 4.71196 17.3966H6.18496V18.8697C6.18496 19.0256 6.2469 19.1751 6.35715 19.2854C6.4674 19.3956 6.61694 19.4576 6.77285 19.4576H9.31968C9.4756 19.4576 9.62513 19.3956 9.73538 19.2854C9.84563 19.1751 9.90757 19.0256 9.90757 18.8697L9.90766 18.8696ZM8.04639 1.51189C9.60044 1.51189 10.8648 2.77619 10.8648 4.33023C10.8648 5.88428 9.60044 7.14858 8.04639 7.14858C6.49235 7.14858 5.22805 5.88428 5.22805 4.33023C5.22805 2.77619 6.49235 1.51189 8.04639 1.51189ZM8.04639 8.34746C11.2483 8.34746 13.9157 10.5959 14.4946 13.674H9.90766V12.2009C9.90766 12.1237 9.89245 12.0473 9.86291 11.9759C9.83336 11.9046 9.79006 11.8398 9.73547 11.7852C9.68088 11.7306 9.61607 11.6873 9.54474 11.6578C9.47341 11.6282 9.39697 11.613 9.31977 11.613H6.77294C6.61702 11.613 6.46749 11.675 6.35724 11.7852C6.24699 11.8955 6.18505 12.045 6.18505 12.2009V13.674H1.59807C2.17706 10.5959 4.84449 8.34746 8.04639 8.34746ZM8.73187 16.8087V18.2818H7.36083V16.8087C7.36083 16.6528 7.29889 16.5033 7.18864 16.393C7.07839 16.2828 6.92886 16.2208 6.77294 16.2208H5.29994V14.8498H6.77294C6.92886 14.8498 7.07839 14.7878 7.18864 14.6776C7.29889 14.5673 7.36083 14.4178 7.36083 14.2619V12.7888H8.73187V14.2619C8.73187 14.4178 8.79381 14.5673 8.90406 14.6776C9.01431 14.7878 9.16385 14.8498 9.31977 14.8498H10.7928V16.2208H9.31977C9.16385 16.2208 9.01431 16.2828 8.90406 16.393C8.79381 16.5033 8.73187 16.6528 8.73187 16.8087ZM15.979 28.8369C15.979 28.9287 15.9575 29.0192 15.9162 29.1012C15.8749 29.1832 15.815 29.2544 15.7412 29.3091L13.9953 30.6035C13.8943 30.6786 13.7717 30.7192 13.6457 30.7191C13.522 30.7193 13.4014 30.6803 13.3011 30.6079C13.2007 30.5355 13.1258 30.4333 13.087 30.3158C13.0481 30.1984 13.0473 30.0716 13.0847 29.9537C13.122 29.8357 13.1957 29.7326 13.2951 29.6589L13.611 29.4247H8.04639C7.89048 29.4247 7.74094 29.3627 7.63069 29.2525C7.52044 29.1422 7.4585 28.9927 7.4585 28.8368V21.2379C7.4585 21.082 7.52044 20.9324 7.63069 20.8222C7.74094 20.7119 7.89048 20.65 8.04639 20.65C8.20231 20.65 8.35184 20.7119 8.4621 20.8222C8.57235 20.9324 8.63428 21.082 8.63428 21.2379V28.2489H13.611L13.2951 28.0147C13.2326 27.9689 13.1798 27.9112 13.1397 27.8449C13.0997 27.7786 13.0731 27.7051 13.0615 27.6285C13.0499 27.5519 13.0536 27.4738 13.0723 27.3986C13.091 27.3234 13.1244 27.2527 13.1705 27.1905C13.2167 27.1283 13.2746 27.0758 13.3411 27.036C13.4076 26.9963 13.4813 26.9701 13.5579 26.9589C13.6346 26.9477 13.7127 26.9518 13.7877 26.9709C13.8628 26.99 13.9334 27.0237 13.9953 27.0702L15.7412 28.3645C15.815 28.4192 15.8749 28.4904 15.9162 28.5724C15.9575 28.6544 15.979 28.745 15.979 28.8368V28.8369ZM14.8746 2.99917C14.8746 2.84325 14.9365 2.69372 15.0468 2.58346C15.157 2.47321 15.3065 2.41128 15.4625 2.41128H30.0152C30.1711 2.41128 30.3206 2.47321 30.4309 2.58346C30.5411 2.69372 30.6031 2.84325 30.6031 2.99917V6.14514L30.8374 5.8291C30.9306 5.70476 31.0692 5.62237 31.223 5.59994C31.3768 5.57751 31.5331 5.61688 31.658 5.70943C31.7828 5.80197 31.8659 5.94018 31.8891 6.09382C31.9123 6.24747 31.8738 6.40406 31.7819 6.52936L30.4874 8.27523C30.4328 8.349 30.3616 8.40893 30.2796 8.45023C30.1976 8.49153 30.107 8.51304 30.0152 8.51304C29.9234 8.51304 29.8328 8.49153 29.7508 8.45023C29.6688 8.40893 29.5976 8.349 29.5429 8.27523L28.2486 6.52936C28.2021 6.46738 28.1684 6.39683 28.1493 6.32176C28.1302 6.2467 28.1261 6.1686 28.1373 6.09195C28.1485 6.0153 28.1747 5.94162 28.2144 5.87513C28.2542 5.80865 28.3067 5.75068 28.3689 5.70454C28.4311 5.65841 28.5018 5.62503 28.577 5.60631C28.6522 5.5876 28.7303 5.58393 28.8069 5.5955C28.8835 5.60708 28.957 5.63367 29.0233 5.67376C29.0896 5.71385 29.1473 5.76664 29.1931 5.8291L29.4273 6.14505V3.58706H15.4624C15.3065 3.58706 15.1569 3.52512 15.0467 3.41487C14.9364 3.30462 14.8746 3.15508 14.8746 2.99917Z" fill="#00507C"/>
</g>
<defs>
<clipPath id="clip0_1614_574">
<rect width="43" height="43" fill="white"/>
</clipPath>
</defs>
</svg>
