<svg width="24" height="24" viewBox="0 0 24 24" fill="none" xmlns="http://www.w3.org/2000/svg">
<path d="M9.4375 6.17892H10.9231V7.66467C10.9231 7.7517 10.9576 7.83516 11.0192 7.89669C11.0807 7.95823 11.1642 7.9928 11.2512 7.9928H12.7512C12.8382 7.9928 12.9217 7.95823 12.9832 7.89669C13.0447 7.83516 13.0793 7.7517 13.0793 7.66467V6.17892H14.5649C14.6519 6.17892 14.7354 6.14435 14.7969 6.08282C14.8584 6.02128 14.893 5.93782 14.893 5.8508V4.3508C14.893 4.26377 14.8584 4.18031 14.7969 4.11878C14.7354 4.05724 14.6519 4.02267 14.5649 4.02267H13.0793V2.53711C13.0793 2.45009 13.0447 2.36663 12.9832 2.30509C12.9217 2.24355 12.8382 2.20898 12.7512 2.20898H11.2512C11.1642 2.20898 11.0807 2.24355 11.0192 2.30509C10.9576 2.36663 10.9231 2.45009 10.9231 2.53711V4.02267H9.4375C9.35048 4.02267 9.26702 4.05724 9.20548 4.11878C9.14394 4.18031 9.10938 4.26377 9.10938 4.3508V5.8508C9.10938 5.93782 9.14394 6.02128 9.20548 6.08282C9.26702 6.14435 9.35048 6.17892 9.4375 6.17892ZM9.76563 4.67892H11.2512C11.3382 4.67892 11.4217 4.64435 11.4832 4.58282C11.5447 4.52128 11.5793 4.43782 11.5793 4.3508V2.86523H12.4231V4.35061C12.423 4.39372 12.4315 4.4364 12.448 4.47623C12.4645 4.51607 12.4886 4.55226 12.5191 4.58275C12.5496 4.61324 12.5858 4.63743 12.6256 4.65393C12.6654 4.67043 12.7081 4.67892 12.7512 4.67892H14.2367V5.52267H12.7512C12.6642 5.52267 12.5807 5.55724 12.5192 5.61878C12.4576 5.68031 12.4231 5.76377 12.4231 5.8508V7.33655H11.5793V5.85061C11.5793 5.76362 11.5447 5.68021 11.4831 5.61871C11.4216 5.55722 11.3382 5.52267 11.2512 5.52267H9.76563V4.67892Z" fill="#00507C"/>
<path d="M23.6719 9.38025C23.7589 9.38025 23.8424 9.34568 23.9039 9.28415C23.9654 9.22261 24 9.13915 24 9.05213V7.06013C23.9995 6.62516 23.8265 6.20815 23.5189 5.90058C23.2114 5.59301 22.7943 5.42 22.3594 5.4195H17.0156V1.14844C17.0156 1.06141 16.9811 0.977953 16.9195 0.916418C16.858 0.854883 16.7745 0.820313 16.6875 0.820312H7.3125C7.22548 0.820313 7.14202 0.854883 7.08048 0.916418C7.01894 0.977953 6.98438 1.06141 6.98438 1.14844V5.41875H1.64062C1.20553 5.41925 0.788402 5.59236 0.480811 5.90009C0.173221 6.20782 0.000297729 6.62503 0 7.06013V9.05213C0 9.13915 0.0345702 9.22261 0.0961056 9.28415C0.157641 9.34568 0.241101 9.38025 0.328125 9.38025H1.40625V20.4615H0.328125C0.241263 20.4615 0.157945 20.4959 0.0964364 20.5573C0.0349279 20.6186 0.000248177 20.7018 0 20.7887L0 22.8512C0 22.9382 0.0345702 23.0217 0.0961056 23.0832C0.157641 23.1447 0.241101 23.1793 0.328125 23.1793H23.6719C23.7589 23.1793 23.8424 23.1447 23.9039 23.0832C23.9654 23.0217 24 22.9382 24 22.8512V20.7887C24 20.7017 23.9654 20.6182 23.9039 20.5567C23.8424 20.4951 23.7589 20.4606 23.6719 20.4606H22.5938V9.37931L23.6719 9.38025ZM22.3594 6.07575C22.6204 6.07605 22.8706 6.17985 23.0551 6.3644C23.2396 6.54894 23.3435 6.79914 23.3438 7.06013V8.724H17.0156V6.075L22.3594 6.07575ZM7.64062 1.47656H16.3594V8.724H7.64062V1.47656ZM0.65625 7.06013C0.656349 6.79901 0.760068 6.54862 0.944631 6.36391C1.12919 6.17921 1.37951 6.0753 1.64062 6.075H6.98438V8.724H0.65625V7.06013ZM23.3438 22.5234H0.65625V21.1172H23.3438V22.5234ZM15.1037 13.3898V20.4606H12.3281V13.3898H15.1037ZM11.6724 20.4606H8.89744V13.3898H11.6724V20.4606ZM21.9381 20.4606H15.7599V13.0616C15.7599 12.9746 15.7254 12.8911 15.6638 12.8296C15.6023 12.7681 15.5188 12.7335 15.4318 12.7335H8.56875C8.52565 12.7335 8.48297 12.7419 8.44315 12.7584C8.40333 12.7749 8.36715 12.7991 8.33668 12.8296C8.3062 12.86 8.28203 12.8962 8.26555 12.936C8.24907 12.9759 8.2406 13.0185 8.24063 13.0616V20.4606H2.0625V9.37931H21.9375L21.9381 20.4606Z" fill="#00507C"/>
<path d="M17.0976 17.2542H20.7656C20.8526 17.2542 20.9361 17.2196 20.9976 17.1581C21.0591 17.0966 21.0937 17.0131 21.0938 16.9261V13.0625C21.0938 12.9755 21.0592 12.892 20.9976 12.8305C20.9361 12.7689 20.8526 12.7344 20.7656 12.7344H17.0976C17.0105 12.7344 16.9271 12.7689 16.8655 12.8305C16.804 12.892 16.7694 12.9755 16.7694 13.0625V16.9261C16.7695 17.0131 16.8041 17.0966 16.8656 17.1581C16.9271 17.2196 17.0106 17.2542 17.0976 17.2542ZM17.4257 13.3906H20.4375V16.598H17.4257V13.3906ZM6.90225 12.7344H3.23438C3.14735 12.7344 3.06389 12.7689 3.00236 12.8305C2.94082 12.892 2.90625 12.9755 2.90625 13.0625V16.9261C2.9063 17.0131 2.94089 17.0966 3.00241 17.1581C3.06394 17.2196 3.14737 17.2542 3.23438 17.2542H6.90225C6.98927 17.2542 7.07273 17.2197 7.13427 17.1581C7.19581 17.0966 7.23038 17.0131 7.23038 16.9261V13.0625C7.2304 13.0194 7.22193 12.9767 7.20545 12.9369C7.18897 12.8971 7.1648 12.8609 7.13432 12.8304C7.10385 12.8 7.06767 12.7758 7.02785 12.7593C6.98803 12.7428 6.94535 12.7344 6.90225 12.7344ZM6.57413 16.598H3.5625V13.3906H6.57413V16.598Z" fill="#00507C"/>
</svg>
