<svg width="43" height="43" viewBox="0 0 43 43" fill="none" xmlns="http://www.w3.org/2000/svg">
<path d="M36.0702 32.5495L29.1482 30.1828L28.3689 28.7072C28.1681 28.3301 27.8314 28.0538 27.419 27.9287C27.3182 27.8984 27.2166 27.8783 27.1141 27.8674V25.8148C27.4534 25.5679 27.7793 25.2983 28.0884 25.0043C29.7185 23.4573 30.7439 21.4274 31.0152 19.2321H31.1983C32.5706 19.2321 33.6876 18.1143 33.6876 16.7411C33.6876 15.903 33.271 15.1605 32.6336 14.7095C32.6588 14.4845 32.6731 14.2602 32.6731 14.0393V10.0299C32.6731 4.50795 28.1807 0.015625 22.6588 0.015625H20.3374C14.8155 0.015625 10.3231 4.50795 10.3231 10.0299V14.0393C10.3231 14.2653 10.3374 14.4895 10.3618 14.7104C9.72518 15.1614 9.30861 15.9038 9.30861 16.7411C9.30861 18.1151 10.4248 19.2321 11.7979 19.2321H11.9785C12.3136 21.949 13.7799 24.3014 15.8796 25.8223V27.8674C15.7762 27.8783 15.6738 27.8984 15.573 27.9295C15.1606 28.0555 14.8247 28.3326 14.6265 28.7089L13.8488 30.182L6.92598 32.5503C5.15559 33.1559 4.01172 34.7558 4.01172 36.6269V40.874C4.01172 42.038 4.95822 42.9846 6.12225 42.9846H36.8731C38.0371 42.9846 38.9837 42.038 38.9837 40.874V36.6269C38.9837 34.7549 37.8406 33.155 36.0702 32.5495ZM31.4889 38.1387C31.929 38.1387 32.2876 38.4973 32.2876 38.9373C32.2876 39.3766 31.929 39.7335 31.4889 39.7335C31.0496 39.7335 30.6927 39.3766 30.6927 38.9373C30.6919 38.4964 31.0496 38.1387 31.4889 38.1387ZM17.812 35.0665C17.9195 35.017 18.022 34.9556 18.1152 34.8809L18.8047 34.3333L19.0197 35.1564C19.0911 35.4293 19.2188 35.6804 19.3909 35.8912L19.1297 37.1821L17.812 35.0665ZM20.1661 38.845L20.7826 35.7997C20.8346 35.5419 20.7313 35.2765 20.518 35.1219C20.4248 35.0539 20.3551 34.9464 20.3215 34.8179L19.9562 33.4204L21.4973 32.1976L22.9662 33.3625L22.6663 34.8523C22.6437 34.9649 22.584 35.0564 22.4958 35.1161C22.2708 35.2681 22.1599 35.541 22.2136 35.8064L22.815 38.7702L21.4578 40.9185L20.2845 39.0348L20.1661 38.845ZM23.853 37.1241L23.6061 35.9089C23.7926 35.6863 23.9227 35.4176 23.984 35.1203L24.1487 34.3006L24.8802 34.8809C24.9667 34.9489 25.0599 35.006 25.1573 35.0531L23.853 37.1241ZM27.1796 29.3354L27.8986 30.6976L25.9022 33.8042C25.8846 33.8319 25.8577 33.8487 25.8225 33.8546C25.8006 33.858 25.757 33.8596 25.7166 33.8269L24.1403 32.5764C24.1352 32.5722 24.1302 32.568 24.1243 32.5638L22.7142 31.4451L26.7505 29.2682C26.758 29.264 26.7648 29.2607 26.7723 29.2565L26.8084 29.2371C26.8418 29.2187 26.8786 29.2071 26.9166 29.2032C26.9545 29.1993 26.9929 29.2032 27.0293 29.2145C27.0763 29.2287 27.141 29.2623 27.1796 29.3354ZM11.6686 14.0377V10.0282C11.6686 5.24785 15.5579 1.35938 20.3374 1.35938H22.6588C27.4392 1.35938 31.3276 5.24869 31.3276 10.0282V14.0377C31.3276 14.109 31.326 14.1813 31.3226 14.2535C31.2814 14.2518 31.2403 14.2501 31.1983 14.2501H30.4576C30.1283 14.2501 29.8613 13.9822 29.8613 13.6538V10.9974C29.8613 10.3785 29.4833 9.84768 28.8963 9.64443C27.9389 9.31857 26.5615 8.44262 25.7586 7.6498C25.4739 7.3693 25.0826 7.21897 24.6862 7.23828C24.2906 7.2576 23.9169 7.44236 23.6632 7.74555C20.5692 11.4241 16.91 10.9328 15.0036 10.3121C14.5686 10.171 14.089 10.2458 13.7212 10.5137C13.3474 10.7849 13.1333 11.2065 13.1333 11.6701V13.6127C13.0896 13.9251 12.8897 14.2493 12.5395 14.2493H11.7987C11.7568 14.2493 11.7156 14.2501 11.6745 14.2527C11.6703 14.1821 11.6686 14.1099 11.6686 14.0377ZM13.2643 18.5199C13.2546 18.3485 13.1796 18.1873 13.0549 18.0694C12.9301 17.9515 12.7649 17.8858 12.5932 17.8858H11.7979C11.1672 17.8858 10.654 17.3718 10.654 16.7394C10.654 16.2716 10.9371 15.8685 11.3402 15.6913L11.3704 15.6787C11.5023 15.625 11.6467 15.5956 11.7979 15.5956H12.5387C13.5448 15.5956 14.3586 14.8086 14.4737 13.7252C14.4762 13.7017 14.477 13.6782 14.477 13.6538V11.671C14.477 11.6601 14.477 11.6265 14.5106 11.6021C14.5442 11.5778 14.5761 11.5878 14.587 11.5912C16.8151 12.3168 21.0908 12.8938 24.6929 8.61059C24.708 8.59211 24.7273 8.58287 24.75 8.58203C24.7735 8.58035 24.7962 8.58959 24.8138 8.60723C25.7536 9.53609 27.3224 10.5296 28.4587 10.9168C28.4974 10.9302 28.5158 10.9563 28.5158 10.9974V13.6538C28.5158 14.7246 29.3868 15.5956 30.4576 15.5956H31.1983C31.3495 15.5956 31.4939 15.6258 31.6266 15.6796L31.6569 15.6921C32.06 15.8694 32.3422 16.2716 32.3422 16.7394C32.3422 17.3718 31.829 17.8858 31.1983 17.8858H30.4004C30.0435 17.8858 29.7487 18.1646 29.7286 18.5207C29.5791 21.1629 28.1925 23.4582 26.1508 24.8565C26.0929 24.8842 26.04 24.9195 25.9929 24.9615C24.6962 25.8064 23.1509 26.2969 21.4964 26.2969C19.9012 26.2984 18.3401 25.8349 17.0041 24.9632C16.9554 24.9187 16.8991 24.8809 16.8387 24.8523C14.8004 23.4531 13.4155 21.1604 13.2643 18.5199ZM21.4973 27.6423C22.9972 27.6423 24.4544 27.2921 25.7695 26.6328V28.2696L21.4973 30.5733L17.225 28.268V26.637C18.5141 27.2812 19.9654 27.6423 21.4973 27.6423ZM15.8166 29.3346C15.8552 29.2615 15.919 29.2287 15.9652 29.2145C16.008 29.201 16.0946 29.1868 16.1869 29.2371L16.2021 29.2455C16.2222 29.2581 16.2432 29.2691 16.2642 29.2791L20.2787 31.4451L17.2779 33.8269C17.2367 33.8596 17.1931 33.858 17.1704 33.8546C17.136 33.8487 17.1108 33.8328 17.0931 33.8051L15.096 30.6976L15.8166 29.3346ZM5.35715 40.8723V36.6253C5.35715 35.3386 6.14408 34.2376 7.36186 33.8219L10.0519 32.9014V35.7249C9.04658 36.0172 8.3092 36.9461 8.3092 38.0438V40.2693C8.3092 40.6405 8.60986 40.9421 8.98191 40.9421C9.35396 40.9421 9.65463 40.6414 9.65463 40.2693V38.0438C9.65463 37.4533 10.135 36.9738 10.7246 36.9738C11.3142 36.9738 11.7946 37.4542 11.7946 38.0438V40.2693C11.7946 40.6405 12.0952 40.9421 12.4673 40.9421C12.8393 40.9421 13.14 40.6414 13.14 40.2693V38.0438C13.14 36.9452 12.4026 36.0164 11.3973 35.7249V32.4412L14.0311 31.54L19.1348 39.7335L20.3148 41.6374H6.12225C5.70064 41.6383 5.35715 41.2948 5.35715 40.8723ZM37.6391 40.8723C37.6391 41.2939 37.2956 41.6374 36.874 41.6374H22.5983L28.9618 31.5392L30.8153 32.1732V36.9016C29.9629 37.1846 29.3464 37.9892 29.3464 38.9365C29.3464 40.1173 30.3072 41.0781 31.488 41.0781C32.6705 41.0781 33.6322 40.1173 33.6322 38.9365C33.6322 37.9892 33.0149 37.1846 32.1608 36.9016V32.6335L35.6344 33.821C36.8521 34.2376 37.6391 35.3386 37.6391 36.6244V40.8723ZM19.3708 19.9779C20.9203 20.9832 22.2607 20.9907 23.591 20.0022C23.8891 19.7805 24.3107 19.8427 24.5316 20.1408C24.7533 20.4389 24.6912 20.8605 24.393 21.0814C23.4919 21.7516 22.5538 22.0867 21.5863 22.0867C20.6305 22.0867 19.6454 21.76 18.6384 21.1058C18.3269 20.9034 18.2378 20.4868 18.4402 20.1752C18.6426 19.8645 19.0592 19.7755 19.3708 19.9779ZM23.9958 13.2784C23.9958 12.9072 24.2965 12.6057 24.6685 12.6057H26.3373C26.7085 12.6057 27.01 12.9064 27.01 13.2784C27.01 13.6505 26.7093 13.9512 26.3373 13.9512H24.6685C24.2965 13.9512 23.9958 13.6496 23.9958 13.2784ZM18.3285 13.9512H16.6598C16.2886 13.9512 15.9871 13.6505 15.9871 13.2784C15.9871 12.9064 16.2877 12.6057 16.6598 12.6057H18.3285C18.6997 12.6057 19.0013 12.9064 19.0013 13.2784C19.0013 13.6505 18.6997 13.9512 18.3285 13.9512ZM18.1648 15.4612V16.3682C18.1648 16.7394 17.8641 17.0409 17.4921 17.0409C17.12 17.0409 16.8193 16.7403 16.8193 16.3682V15.4612C16.8193 15.09 17.12 14.7885 17.4921 14.7885C17.8641 14.7885 18.1648 15.09 18.1648 15.4612ZM26.176 15.4612V16.3682C26.176 16.7394 25.8754 17.0409 25.5033 17.0409C25.1313 17.0409 24.8306 16.7403 24.8306 16.3682V15.4612C24.8306 15.09 25.1313 14.7885 25.5033 14.7885C25.8754 14.7885 26.176 15.09 26.176 15.4612Z" fill="#00507C"/>
</svg>
