<svg width="24" height="24" viewBox="0 0 24 24" fill="none" xmlns="http://www.w3.org/2000/svg">
<path d="M22.1511 14.9997C21.8209 14.9997 21.5533 15.2673 21.5533 15.5974V20.9046C21.5522 21.8945 20.7501 22.6968 19.7602 22.6977H2.98862C1.99864 22.6968 1.19662 21.8945 1.19545 20.9046V5.32847C1.19662 4.33872 1.99864 3.53646 2.98862 3.53529H8.29576C8.62591 3.53529 8.89348 3.26772 8.89348 2.93757C8.89348 2.60765 8.62591 2.33984 8.29576 2.33984H2.98862C1.33881 2.34171 0.00186789 3.67865 0 5.32847V20.9048C0.00186789 22.5546 1.33881 23.8915 2.98862 23.8934H19.7602C21.41 23.8915 22.7469 22.5546 22.7488 20.9048V15.5974C22.7488 15.2673 22.4812 14.9997 22.1511 14.9997Z" fill="#00507C"/>
<path d="M22.5101 0.803465C21.4596 -0.246988 19.7566 -0.246988 18.7061 0.803465L8.04237 11.4672C7.96929 11.5403 7.91652 11.6309 7.88897 11.7304L6.48666 16.7931C6.42898 17.0006 6.48759 17.2229 6.63982 17.3754C6.79229 17.5276 7.01457 17.5862 7.22214 17.5288L12.2848 16.1262C12.3843 16.0987 12.4749 16.0459 12.548 15.9728L23.2115 5.30881C24.2603 4.25766 24.2603 2.55601 23.2115 1.50486L22.5101 0.803465ZM9.34476 11.8558L18.0722 3.12805L20.8869 5.94273L12.1592 14.6704L9.34476 11.8558ZM8.78252 12.984L11.0312 15.2329L7.92073 16.0947L8.78252 12.984ZM22.3663 4.46359L21.7324 5.09751L18.9175 2.2826L19.5516 1.64868C20.1351 1.0652 21.0812 1.0652 21.6647 1.64868L22.3663 2.35008C22.9488 2.93426 22.9488 3.87964 22.3663 4.46359Z" fill="#00507C"/>
</svg>
