<svg width="24" height="24" viewBox="0 0 24 24" fill="none" xmlns="http://www.w3.org/2000/svg">
<g clip-path="url(#clip0_1641_265)">
<path d="M4.5764 12.9838L7.36115 10.199C8.42641 10.9969 9.75437 11.3616 11.0777 11.2197C12.401 11.0778 13.6215 10.4398 14.4933 9.43422C15.3652 8.42864 15.8238 7.1301 15.7767 5.80002C15.7296 4.46993 15.1804 3.20705 14.2397 2.26562C13.2989 1.32418 12.0364 0.774094 10.7064 0.726085C9.37631 0.678076 8.07745 1.13571 7.07126 2.00687C6.06506 2.87803 5.42624 4.09802 5.2834 5.42125C5.14056 6.74448 5.5043 8.0727 6.3014 9.13852L3.5159 11.924L2.4554 10.8628C2.31467 10.7221 2.12384 10.6432 1.92489 10.6432C1.72594 10.6433 1.53516 10.7224 1.39453 10.8631C1.2539 11.0039 1.17493 11.1947 1.175 11.3937C1.17507 11.5926 1.25417 11.7834 1.3949 11.924L2.4554 12.9853L0.971154 14.4688C0.899521 14.538 0.842384 14.6207 0.803078 14.7122C0.763771 14.8037 0.743081 14.9021 0.742216 15.0017C0.74135 15.1013 0.760327 15.2001 0.798037 15.2922C0.835748 15.3844 0.891438 15.4682 0.961857 15.5386C1.03228 15.609 1.11602 15.6647 1.20819 15.7024C1.30036 15.7401 1.39912 15.7591 1.4987 15.7582C1.59829 15.7573 1.6967 15.7367 1.78821 15.6973C1.87971 15.658 1.96247 15.6009 2.03165 15.5293L3.5159 14.045L4.5764 15.1055C4.64559 15.1772 4.72835 15.2343 4.81985 15.2736C4.91135 15.3129 5.00977 15.3336 5.10935 15.3345C5.20894 15.3353 5.3077 15.3163 5.39987 15.2786C5.49204 15.2409 5.57578 15.1852 5.6462 15.1148C5.71662 15.0444 5.77231 14.9607 5.81002 14.8685C5.84773 14.7763 5.86671 14.6776 5.86584 14.578C5.86498 14.4784 5.84429 14.38 5.80498 14.2885C5.76567 14.197 5.70854 14.1142 5.6369 14.045L4.5764 12.9838ZM10.5014 2.24902C11.2431 2.24902 11.9681 2.46896 12.5848 2.88101C13.2015 3.29307 13.6821 3.87874 13.966 4.56396C14.2498 5.24918 14.324 6.00318 14.1793 6.73061C14.0347 7.45804 13.6775 8.12623 13.1531 8.65067C12.6286 9.17512 11.9604 9.53227 11.233 9.67697C10.5056 9.82166 9.75156 9.7474 9.06634 9.46357C8.38112 9.17974 7.79545 8.6991 7.38339 8.08241C6.97134 7.46573 6.7514 6.7407 6.7514 5.99902C6.7514 5.00446 7.14649 4.05063 7.84975 3.34737C8.55301 2.64411 9.50684 2.24902 10.5014 2.24902Z" fill="#00507C"/>
<path d="M22.5003 8.25H18.7503C18.5514 8.25 18.3606 8.32902 18.22 8.46967C18.0793 8.61032 18.0003 8.80109 18.0003 9C18.0003 9.19891 18.0793 9.38968 18.22 9.53033C18.3606 9.67098 18.5514 9.75 18.7503 9.75H20.6898L16.6398 13.8C15.5742 13.0026 14.2462 12.6384 12.9229 12.7809C11.5997 12.9233 10.3795 13.5617 9.508 14.5676C8.63653 15.5735 8.17847 16.8722 8.22602 18.2022C8.27358 19.5323 8.82322 20.7949 9.7643 21.736C10.7054 22.6771 11.968 23.2267 13.2981 23.2743C14.6281 23.3218 15.9268 22.8638 16.9327 21.9923C17.9386 21.1208 18.577 19.9007 18.7194 18.5774C18.8619 17.2541 18.4977 15.9261 17.7003 14.8605L21.7503 10.8105V12.75C21.7503 12.9489 21.8293 13.1397 21.97 13.2803C22.1106 13.421 22.3014 13.5 22.5003 13.5C22.6992 13.5 22.89 13.421 23.0306 13.2803C23.1713 13.1397 23.2503 12.9489 23.2503 12.75V9C23.2503 8.80109 23.1713 8.61032 23.0306 8.46967C22.89 8.32902 22.6992 8.25 22.5003 8.25ZM13.5003 21.75C12.7586 21.75 12.0336 21.5301 11.4169 21.118C10.8002 20.706 10.3196 20.1203 10.0358 19.4351C9.75192 18.7498 9.67766 17.9958 9.82235 17.2684C9.96705 16.541 10.3242 15.8728 10.8486 15.3483C11.3731 14.8239 12.0413 14.4667 12.7687 14.3221C13.4961 14.1774 14.2501 14.2516 14.9354 14.5355C15.6206 14.8193 16.2063 15.2999 16.6183 15.9166C17.0304 16.5333 17.2503 17.2583 17.2503 18C17.2503 18.4925 17.1533 18.9801 16.9648 19.4351C16.7764 19.89 16.5002 20.3034 16.1519 20.6517C15.8037 20.9999 15.3903 21.2761 14.9354 21.4645C14.4804 21.653 13.9928 21.75 13.5003 21.75Z" fill="#00507C"/>
</g>
<defs>
<clipPath id="clip0_1641_265">
<rect width="24" height="24" fill="white"/>
</clipPath>
</defs>
</svg>
