<svg width="24" height="24" viewBox="0 0 24 24" fill="none" xmlns="http://www.w3.org/2000/svg">
<g clip-path="url(#clip0_1735_127)">
<path d="M7.37133 12.2812H5.56226C3.99992 12.2851 2.73433 13.5507 2.73047 15.113V16.0199C2.73047 16.1912 2.86931 16.33 3.04056 16.33H9.89185C9.89302 16.33 9.89419 16.33 9.89536 16.33C10.0666 16.3287 10.2044 16.1888 10.2031 16.0176V15.113C10.1993 13.5507 8.93367 12.2851 7.37133 12.2812ZM9.58293 15.7075H3.35065V15.113C3.35703 13.8943 4.34348 12.9078 5.56226 12.9014H7.37133C8.59011 12.9078 9.57655 13.8943 9.58293 15.113V15.7075Z" fill="#00507C"/>
<path d="M20.9625 15.0586H12.6543C12.498 15.0682 12.3735 15.1928 12.3639 15.349C12.3533 15.52 12.4834 15.6671 12.6543 15.6776H20.9625C21.1187 15.668 21.2433 15.5434 21.2529 15.3872C21.2634 15.2162 21.1334 15.0691 20.9625 15.0586Z" fill="#00507C"/>
<path d="M7.92701 11.2553L7.94573 11.2377C7.94597 11.2375 7.9462 11.2373 7.94649 11.237C8.76198 10.4211 8.76169 9.09857 7.94573 8.28309C7.55466 7.89038 7.02324 7.66969 6.46899 7.66992C5.92334 7.66969 5.3994 7.88353 5.0098 8.26553L4.99108 8.28309C4.99084 8.28332 4.99061 8.28355 4.99032 8.28385C4.17483 9.09974 4.17512 10.4223 4.99108 11.2377C5.79936 12.0477 7.10913 12.0555 7.92701 11.2553ZM5.43223 8.72307L5.44744 8.70785C6.02421 8.15179 6.93963 8.15852 7.50809 8.72307L7.5116 8.7219C8.08551 9.29621 8.08551 10.227 7.5116 10.8013L7.49639 10.8165C6.9195 11.3752 6.00145 11.3689 5.43223 10.8024C4.85832 10.2281 4.85832 9.29738 5.43223 8.72307Z" fill="#00507C"/>
<path d="M21.9347 3.35742H2.06533C0.926007 3.36064 0.00321794 4.28343 0 5.42276V18.5777C0.00321794 19.717 0.926007 20.6398 2.06533 20.643H21.9347C23.074 20.6398 23.9968 19.717 24 18.5777V5.42276C23.9968 4.28343 23.074 3.36064 21.9347 3.35742ZM23.381 18.5777C23.3784 19.3754 22.7324 20.0215 21.9347 20.024H2.06533C1.26764 20.0215 0.621589 19.3754 0.619015 18.5777V5.42276C0.621589 4.62506 1.26764 3.97901 2.06533 3.97644H21.9347C22.7324 3.97901 23.3784 4.62506 23.381 5.42276V18.5777Z" fill="#00507C"/>
<path d="M20.9625 8.32422H12.6544C12.4981 8.33381 12.3735 8.45844 12.3639 8.61471C12.3533 8.78567 12.4834 8.93276 12.6544 8.94323H20.9625C21.1188 8.93364 21.2434 8.80902 21.253 8.65274C21.2635 8.48184 21.1335 8.33475 20.9625 8.32422Z" fill="#00507C"/>
<path d="M20.9625 11.6914H12.6544C12.4981 11.701 12.3735 11.8256 12.3639 11.9819C12.3533 12.1529 12.4834 12.2999 12.6544 12.3104H20.9625C21.1188 12.3008 21.2434 12.1762 21.253 12.0199C21.2635 11.849 21.1335 11.7019 20.9625 11.6914Z" fill="#00507C"/>
<path d="M20.9625 10.0078H12.6544C12.4981 10.0174 12.3735 10.142 12.3639 10.2983C12.3533 10.4693 12.4834 10.6164 12.6544 10.6268H20.9625C21.1188 10.6172 21.2434 10.4926 21.253 10.3363C21.2635 10.1654 21.1335 10.0183 20.9625 10.0078Z" fill="#00507C"/>
<path d="M20.9625 13.375H12.6543C12.498 13.3846 12.3735 13.5092 12.3639 13.6654C12.3533 13.8364 12.4834 13.9835 12.6543 13.994H20.9625C21.1187 13.9844 21.2433 13.8598 21.2529 13.7036C21.2634 13.5326 21.1334 13.3855 20.9625 13.375Z" fill="#00507C"/>
</g>
<defs>
<clipPath id="clip0_1735_127">
<rect width="24" height="24" fill="white"/>
</clipPath>
</defs>
</svg>
