<svg width="43" height="43" viewBox="0 0 43 43" fill="none" xmlns="http://www.w3.org/2000/svg">
<path d="M18.7975 33.4996H6.42156C5.75 33.4971 5.10685 33.2283 4.63324 32.7522C4.15963 32.2761 3.89424 31.6315 3.89531 30.9599V14.7745H35.9572V16.0846C35.9572 16.4054 36.0846 16.713 36.3114 16.9398C36.5382 17.1666 36.8458 17.294 37.1666 17.294C37.4873 17.294 37.7949 17.1666 38.0217 16.9398C38.2485 16.713 38.3759 16.4054 38.3759 16.0846V8.89556C38.3745 7.58415 37.8529 6.32685 36.9256 5.39954C35.9983 4.47223 34.741 3.95064 33.4296 3.94922H6.42156C5.11038 3.951 3.85343 4.47274 2.92641 5.40001C1.99939 6.32729 1.47798 7.58438 1.47656 8.89556V30.9599C1.47656 32.2729 1.9973 33.5323 2.92458 34.4618C3.85185 35.3914 5.10994 35.9152 6.42291 35.9184H18.7988C18.9577 35.9183 19.1149 35.8869 19.2616 35.8261C19.4083 35.7652 19.5416 35.676 19.6538 35.5637C19.766 35.4513 19.855 35.318 19.9157 35.1712C19.9764 35.0244 20.0076 34.8671 20.0075 34.7083C20.0075 34.5495 19.9761 34.3923 19.9152 34.2456C19.8544 34.0989 19.7652 33.9656 19.6529 33.8534C19.5405 33.7411 19.4071 33.6521 19.2604 33.5914C19.1136 33.5307 18.9563 33.4995 18.7975 33.4996ZM6.42156 6.36931H33.4309C34.8244 6.36931 35.9572 7.50209 35.9572 8.89556V12.3544H3.89531V8.89556C3.89531 7.50209 5.02809 6.36931 6.42156 6.36931Z" fill="#00507C"/>
<path d="M7.9705 10.4215C8.55827 10.4215 9.03475 9.94499 9.03475 9.35722C9.03475 8.76945 8.55827 8.29297 7.9705 8.29297C7.38273 8.29297 6.90625 8.76945 6.90625 9.35722C6.90625 9.94499 7.38273 10.4215 7.9705 10.4215Z" fill="#00507C"/>
<path d="M11.7205 10.4215C12.3083 10.4215 12.7847 9.94499 12.7847 9.35722C12.7847 8.76945 12.3083 8.29297 11.7205 8.29297C11.1327 8.29297 10.6562 8.76945 10.6562 9.35722C10.6562 9.94499 11.1327 10.4215 11.7205 10.4215Z" fill="#00507C"/>
<path d="M15.4705 10.4215C16.0583 10.4215 16.5348 9.94499 16.5348 9.35722C16.5348 8.76945 16.0583 8.29297 15.4705 8.29297C14.8827 8.29297 14.4062 8.76945 14.4062 9.35722C14.4062 9.94499 14.8827 10.4215 15.4705 10.4215Z" fill="#00507C"/>
<path d="M40.2348 20.8605C38.5793 19.2023 35.6889 19.2036 34.0334 20.8591L23.3116 31.5809C22.9674 31.925 22.7391 32.368 22.6586 32.8481L22.0714 36.323C22.0096 36.6912 22.0367 37.0688 22.1503 37.4245C22.2639 37.7801 22.4608 38.1035 22.7246 38.3677C22.9884 38.6318 23.3115 38.8292 23.6669 38.9434C24.0224 39.0575 24.4 39.0852 24.7683 39.024L28.2472 38.4367C28.731 38.3534 29.1704 38.1277 29.5117 37.7837L40.2335 27.0619C41.0612 26.2341 41.5168 25.1309 41.5168 23.9605C41.5168 22.7901 41.0639 21.6896 40.2348 20.8605ZM27.8454 36.0516L24.4579 36.7261L25.0236 33.2915L32.7085 25.6066L35.4914 28.3895L27.8454 36.0516ZM38.5242 25.35L37.2006 26.6762L34.4191 23.8947L35.7454 22.5684C36.1162 22.1975 36.6107 21.9919 37.1348 21.9919C37.6589 21.9919 38.1534 22.1962 38.5242 22.5684C39.2902 23.3357 39.2902 24.584 38.5242 25.35Z" fill="#00507C"/>
</svg>
