<svg width="43" height="43" viewBox="0 0 43 43" fill="none" xmlns="http://www.w3.org/2000/svg">
<path d="M38.3667 2.69867H34.9039V1.25977C34.9039 0.564039 34.3399 0 33.6441 0C32.9484 0 32.3844 0.564039 32.3844 1.25977V2.69867H26.8078V1.25977C26.8078 0.564039 26.2438 0 25.548 0C24.8523 0 24.2883 0.564039 24.2883 1.25977V2.69867H18.7117V1.25977C18.7117 0.564039 18.1477 0 17.452 0C16.7562 0 16.1922 0.564039 16.1922 1.25977V2.69867H10.6156V1.25977C10.6156 0.564039 10.0516 0 9.35586 0C8.66013 0 8.09609 0.564039 8.09609 1.25977V2.69867H4.63308C2.07845 2.69867 0 4.77703 0 7.33184V38.3668C0 40.9216 2.07845 43 4.63308 43H38.3667C40.9215 43 43 40.9216 43 38.3668V7.33184C43 4.77703 40.9215 2.69867 38.3667 2.69867ZM4.63308 5.2182H8.09609V6.65719C8.09609 7.35292 8.66013 7.91695 9.35586 7.91695C10.0516 7.91695 10.6156 7.35292 10.6156 6.65719V5.2182H16.192V6.65719C16.192 7.35292 16.7561 7.91695 17.4518 7.91695C18.1475 7.91695 18.7116 7.35292 18.7116 6.65719V5.2182H24.2881V6.65719C24.2881 7.35292 24.8522 7.91695 25.5479 7.91695C26.2436 7.91695 26.8076 7.35292 26.8076 6.65719V5.2182H32.3842V6.65719C32.3842 7.35292 32.9482 7.91695 33.644 7.91695C34.3397 7.91695 34.9037 7.35292 34.9037 6.65719V5.2182H38.3666C39.5322 5.2182 40.4805 6.16639 40.4805 7.33184V10.7948H2.51953V7.33184C2.51953 6.16639 3.46771 5.2182 4.63308 5.2182ZM38.3667 40.4805H4.63308C3.46771 40.4805 2.51953 39.5323 2.51953 38.3668V13.3143H40.4805V38.3668C40.4805 39.5323 39.5322 40.4805 38.3667 40.4805Z" fill="#00507C"/>
<path d="M12.7275 17.543H7.33008C6.63435 17.543 6.07031 18.107 6.07031 18.8027V24.2001C6.07031 24.8958 6.63435 25.4598 7.33008 25.4598H12.7276C13.4233 25.4598 13.9874 24.8958 13.9874 24.2001V18.8027C13.9873 18.107 13.4233 17.543 12.7275 17.543ZM11.4677 22.9403H8.58976V20.0625H11.4677V22.9403ZM35.6664 17.543H30.2691C29.5733 17.543 29.0093 18.107 29.0093 18.8027V24.2001C29.0093 24.8958 29.5733 25.4598 30.2691 25.4598H35.6664C36.3621 25.4598 36.9262 24.8958 36.9262 24.2001V18.8027C36.9262 18.107 36.3621 17.543 35.6664 17.543ZM34.4066 22.9403H31.5288V20.0625H34.4066V22.9403ZM12.7275 28.3377H7.33008C6.63435 28.3377 6.07031 28.9018 6.07031 29.5975V34.9948C6.07031 35.6906 6.63435 36.2546 7.33008 36.2546H12.7276C13.4233 36.2546 13.9874 35.6906 13.9874 34.9948V29.5975C13.9873 28.9018 13.4233 28.3377 12.7275 28.3377ZM11.4677 33.7351H8.58976V30.8573H11.4677V33.7351ZM35.6664 28.3377H30.2691C29.5733 28.3377 29.0093 28.9018 29.0093 29.5975V34.9948C29.0093 35.6906 29.5733 36.2546 30.2691 36.2546H35.6664C36.3621 36.2546 36.9262 35.6906 36.9262 34.9948V29.5975C36.9262 28.9018 36.3621 28.3377 35.6664 28.3377ZM34.4066 33.7351H31.5288V30.8573H34.4066V33.7351ZM24.197 28.3377H18.7995C18.1038 28.3377 17.5397 28.9018 17.5397 29.5975V34.9948C17.5397 35.6906 18.1038 36.2546 18.7995 36.2546H24.197C24.8927 36.2546 25.4568 35.6906 25.4568 34.9948V29.5975C25.4568 28.9018 24.8927 28.3377 24.197 28.3377ZM22.9372 33.7351H20.0593V30.8573H22.9372V33.7351ZM23.4699 18.7025L20.5443 21.6281L19.5268 20.6106C19.0349 20.1186 18.2372 20.1186 17.7452 20.6106C17.2533 21.1026 17.2533 21.9002 17.7452 22.3921L19.6536 24.3005C19.8899 24.5368 20.2103 24.6695 20.5444 24.6695C20.8785 24.6695 21.1989 24.5368 21.4352 24.3005L25.2515 20.484C25.7434 19.992 25.7434 19.1944 25.2515 18.7025C24.7594 18.2105 23.9618 18.2105 23.4699 18.7025Z" fill="#00507C"/>
</svg>
