<svg width="20" height="20" viewBox="0 0 20 20" fill="none" xmlns="http://www.w3.org/2000/svg">
<path d="M8.21564 9.63408C9.53918 9.63408 10.6851 9.15938 11.6217 8.22279C12.558 7.28636 13.0328 6.14058 13.0328 4.81688C13.0328 3.49365 12.5581 2.34771 11.6216 1.41098C10.685 0.4747 9.53903 0 8.21564 0C6.89194 0 5.74615 0.4747 4.80972 1.41113C3.87329 2.34756 3.39844 3.49349 3.39844 4.81688C3.39844 6.14058 3.87329 7.28651 4.80972 8.22295C5.74646 9.15922 6.8924 9.63408 8.21564 9.63408ZM5.63858 2.23983C6.35712 1.5213 7.20001 1.17203 8.21564 1.17203C9.23111 1.17203 10.0742 1.5213 10.7928 2.23983C11.5114 2.95852 11.8608 3.80157 11.8608 4.81688C11.8608 5.83251 11.5114 6.6754 10.7928 7.39409C10.0742 8.11278 9.23111 8.46205 8.21564 8.46205C7.20032 8.46205 6.35742 8.11262 5.63858 7.39409C4.91989 6.67555 4.57047 5.83251 4.57047 4.81688C4.57047 3.80157 4.91989 2.95852 5.63858 2.23983Z" fill="#00507C"/>
<path d="M16.6457 15.3784C16.6187 14.9887 16.564 14.5636 16.4836 14.1146C16.4024 13.6624 16.2979 13.2348 16.1728 12.844C16.0434 12.4401 15.8678 12.0413 15.6503 11.6591C15.425 11.2623 15.1601 10.9169 14.8628 10.6326C14.552 10.3352 14.1714 10.0961 13.7314 9.92169C13.2928 9.7482 12.8069 9.66031 12.287 9.66031C12.0828 9.66031 11.8854 9.74408 11.5041 9.99234C11.2694 10.1454 10.9949 10.3224 10.6885 10.5182C10.4265 10.6851 10.0716 10.8415 9.63318 10.9831C9.20547 11.1215 8.77121 11.1917 8.34244 11.1917C7.91397 11.1917 7.47971 11.1215 7.0517 10.9831C6.61377 10.8416 6.2587 10.6852 5.99716 10.5183C5.69366 10.3244 5.41901 10.1474 5.18082 9.99219C4.7998 9.74393 4.60236 9.66016 4.39819 9.66016C3.87817 9.66016 3.39233 9.7482 2.95395 9.92184C2.51419 10.0959 2.13348 10.3351 1.82236 10.6327C1.52512 10.9172 1.26022 11.2625 1.035 11.6591C0.817871 12.0413 0.64209 12.44 0.512695 12.8442C0.387726 13.235 0.283203 13.6624 0.202026 14.1146C0.12146 14.5629 0.0669861 14.9882 0.039978 15.3788C0.0134277 15.7608 0 16.1583 0 16.5599C0 17.6039 0.331879 18.449 0.986328 19.0724C1.63269 19.6874 2.48779 19.9993 3.52798 19.9993H13.1581C14.198 19.9993 15.0531 19.6874 15.6996 19.0724C16.3542 18.4495 16.6861 17.604 16.6861 16.5597C16.6859 16.1567 16.6724 15.7592 16.6457 15.3784ZM14.8915 18.2232C14.4644 18.6297 13.8974 18.8273 13.158 18.8273H3.52798C2.78839 18.8273 2.22137 18.6297 1.79443 18.2234C1.37558 17.8247 1.17203 17.2804 1.17203 16.5599C1.17203 16.1851 1.18439 15.8151 1.20911 15.4599C1.23322 15.1113 1.2825 14.7285 1.35559 14.3217C1.42776 13.9199 1.51962 13.5429 1.62888 13.2016C1.7337 12.8743 1.87668 12.5502 2.05399 12.238C2.22321 11.9404 2.41791 11.6851 2.63275 11.4795C2.83371 11.287 3.08701 11.1296 3.38547 11.0115C3.6615 10.9022 3.97171 10.8424 4.30847 10.8334C4.34952 10.8552 4.42261 10.8969 4.54102 10.9741C4.78195 11.1311 5.05966 11.3102 5.36667 11.5063C5.71274 11.727 6.1586 11.9262 6.69128 12.0982C7.23587 12.2743 7.79129 12.3637 8.34259 12.3637C8.89389 12.3637 9.44946 12.2743 9.99374 12.0984C10.5269 11.9261 10.9726 11.727 11.3191 11.506C11.6333 11.3052 11.9032 11.1313 12.1442 10.9741C12.2626 10.897 12.3357 10.8552 12.3767 10.8334C12.7136 10.8424 13.0238 10.9022 13.3 11.0115C13.5983 11.1296 13.8516 11.2872 14.0526 11.4795C14.2674 11.685 14.4621 11.9403 14.6313 12.2381C14.8088 12.5502 14.9519 12.8744 15.0566 13.2014C15.166 13.5432 15.258 13.9201 15.33 14.3216C15.403 14.7291 15.4524 15.1121 15.4765 15.46V15.4603C15.5014 15.8142 15.5139 16.184 15.5141 16.5599C15.5139 17.2805 15.3104 17.8247 14.8915 18.2232Z" fill="#00507C"/>
</svg>
