<svg width="43" height="43" viewBox="0 0 43 43" fill="none" xmlns="http://www.w3.org/2000/svg">
<g clip-path="url(#clip0_1614_589)">
<path d="M20.0333 12.7667H17.8017V10.5351C17.8017 10.0712 17.4256 9.69531 16.9619 9.69531C16.4982 9.69531 16.1222 10.0713 16.1222 10.5351V12.7667H13.8905C13.4268 12.7667 13.0508 13.1427 13.0508 13.6065C13.0508 14.0702 13.4268 14.4462 13.8905 14.4462H16.1222V16.6778C16.1222 17.1417 16.4982 17.5176 16.9619 17.5176C17.4256 17.5176 17.8017 17.1416 17.8017 16.6778V14.4462H20.0333C20.4971 14.4462 20.8731 14.0702 20.8731 13.6065C20.8731 13.1427 20.4971 12.7667 20.0333 12.7667Z" fill="#00507C"/>
<path d="M16.9644 6.21875C12.8895 6.21875 9.57422 9.53403 9.57422 13.6089C9.57422 17.6839 12.8895 20.9991 16.9644 20.9991C21.0393 20.9991 24.3546 17.6839 24.3546 13.6089C24.3546 9.53403 21.0393 6.21875 16.9644 6.21875ZM16.9644 19.3194C13.8156 19.3194 11.2538 16.7577 11.2538 13.6089C11.2538 10.46 13.8156 7.89827 16.9644 7.89827C20.1132 7.89827 22.675 10.46 22.675 13.6089C22.675 16.7577 20.1132 19.3194 16.9644 19.3194Z" fill="#00507C"/>
<path d="M33.6815 7.72016L26.2074 0.24599C26.0499 0.0885116 25.8363 3.06894e-05 25.6136 0H2.51936C1.13018 0 0 1.13026 0 2.51944V40.4781C0 41.8673 1.13018 42.9975 2.51936 42.9975H18.5611C19.0249 42.9975 19.4009 42.6214 19.4009 42.1577C19.4009 41.694 19.0248 41.318 18.5611 41.318H2.51936C2.05627 41.318 1.6796 40.9412 1.6796 40.4782V2.51944C1.6796 2.05635 2.05635 1.67968 2.51936 1.67968H24.7737V6.63442C24.7737 8.0236 25.9039 9.15378 27.2931 9.15378H32.2478V24.102C32.2478 24.5658 32.6239 24.9418 33.0876 24.9418C33.5513 24.9418 33.9274 24.5657 33.9274 24.102V8.31393C33.9274 8.20366 33.9057 8.09446 33.8636 7.99257C33.8214 7.89069 33.7595 7.79812 33.6815 7.72016ZM27.2932 7.47417C26.8301 7.47417 26.4534 7.09742 26.4534 6.63442V2.8673L31.0604 7.47417H27.2932Z" fill="#00507C"/>
<path d="M27.7134 23.5156H13.129C12.6652 23.5156 12.2893 23.8917 12.2893 24.3554C12.2893 24.8191 12.6653 25.1951 13.129 25.1951H27.7134C28.1771 25.1951 28.5531 24.8191 28.5531 24.3554C28.5532 23.8917 28.1771 23.5156 27.7134 23.5156ZM8.95113 23.5156H6.21476C5.751 23.5156 5.375 23.8917 5.375 24.3554C5.375 24.8191 5.75108 25.1951 6.21476 25.1951H8.95113C9.41489 25.1951 9.79089 24.8191 9.79089 24.3554C9.79089 23.8917 9.41489 23.5156 8.95113 23.5156ZM21.499 28.2184H13.129C12.6652 28.2184 12.2893 28.5945 12.2893 29.0582C12.2893 29.5218 12.6653 29.8979 13.129 29.8979H21.499C21.9627 29.8979 22.3387 29.5219 22.3387 29.0582C22.3387 28.5945 21.9627 28.2184 21.499 28.2184ZM8.95113 28.2184H6.21476C5.751 28.2184 5.375 28.5945 5.375 29.0582C5.375 29.5218 5.75108 29.8979 6.21476 29.8979H8.95113C9.41489 29.8979 9.79089 29.5218 9.79089 29.0582C9.79089 28.5945 9.41489 28.2184 8.95113 28.2184ZM13.7224 33.1673C13.5647 33.0103 13.3513 32.9219 13.1288 32.9213C12.9079 32.9213 12.692 33.011 12.535 33.1673C12.3781 33.3252 12.2897 33.5385 12.2889 33.7611C12.2889 33.982 12.3787 34.1987 12.535 34.3548C12.6928 34.5117 12.9062 34.6002 13.1288 34.601C13.3505 34.601 13.5663 34.5111 13.7224 34.3548C13.8797 34.1972 13.9682 33.9838 13.9686 33.7611C13.9686 33.5402 13.8795 33.3236 13.7224 33.1673ZM8.95113 32.9213H6.21476C5.751 32.9213 5.375 33.2974 5.375 33.761C5.375 34.2248 5.75108 34.6008 6.21476 34.6008H8.95113C9.41489 34.6008 9.79089 34.2247 9.79089 33.761C9.79097 33.2974 9.41489 32.9213 8.95113 32.9213ZM37.7935 32.5852C37.547 32.5852 37.3048 32.6036 37.0674 32.6369C37.5966 30.862 37.1619 28.8586 35.7631 27.4596C34.7796 26.4762 33.4722 25.9346 32.0814 25.9346C30.6905 25.9346 29.3831 26.4762 28.3997 27.4596L21.7489 34.1103C20.7655 35.0938 20.2239 36.4012 20.2239 37.792C20.2239 39.1829 20.7655 40.4903 21.7489 41.4737C22.7641 42.4888 24.0971 42.9963 25.4306 42.9963C26.7638 42.9963 28.0973 42.4886 29.1123 41.4737L32.5919 37.9941C32.6987 40.7717 34.9904 42.9987 37.7936 42.9987C40.6647 42.9987 43.0003 40.663 43.0003 37.7919C43.0003 34.9208 40.6646 32.5852 37.7935 32.5852ZM27.9245 40.2861C26.5494 41.6614 24.3117 41.6614 22.9365 40.2861C22.2703 39.6199 21.9034 38.7342 21.9034 37.7921C21.9034 36.85 22.2703 35.9642 22.9365 35.2981L25.6681 32.5665L30.6561 37.5546L27.9245 40.2861ZM31.8436 36.3669L26.8556 31.3788L29.5872 28.6473C30.2535 27.9811 31.1391 27.6142 32.0812 27.6142C33.0234 27.6142 33.9091 27.9811 34.5752 28.6473C35.9505 30.0225 35.9505 32.2601 34.5752 33.6353L31.8436 36.3669ZM36.9537 41.2174C35.4131 40.8395 34.2663 39.4474 34.2663 37.792C34.2663 36.1365 35.413 34.7445 36.9537 34.3667V41.2174ZM38.6333 41.2174V34.3666C40.1739 34.7445 41.3207 36.1365 41.3207 37.7919C41.3207 39.4473 40.1739 40.8395 38.6333 41.2174Z" fill="#00507C"/>
</g>
<defs>
<clipPath id="clip0_1614_589">
<rect width="43" height="43" fill="white"/>
</clipPath>
</defs>
</svg>
