<svg width="24" height="24" viewBox="0 0 24 24" fill="none" xmlns="http://www.w3.org/2000/svg">
<g clip-path="url(#clip0_1642_353)">
<path d="M17.6062 23.9342C17.8602 23.9778 18.1173 23.9999 18.375 24.0004C19.2859 24.0004 20.1328 23.7108 20.8996 23.1353C22.7265 21.7647 23.768 19.9097 23.9951 17.622C24.0219 17.3525 23.9534 17.0822 23.8015 16.8579C23.6497 16.6337 23.4241 16.4697 23.1639 16.3945L18.0767 14.9239C17.8052 14.8458 17.5146 14.8694 17.2593 14.9903C17.004 15.1112 16.8016 15.3211 16.69 15.5806C16.3525 16.3681 15.7881 17.6853 15.1482 17.972C14.9661 18.0534 14.7693 18.0967 14.5699 18.0994C14.3704 18.102 14.1725 18.0639 13.9883 17.9875C11.0719 16.0529 7.94768 12.9286 6.01306 10.0123C5.93658 9.82812 5.8985 9.63023 5.90116 9.43078C5.90382 9.23133 5.94716 9.03453 6.02853 8.85242C6.31507 8.21248 7.63268 7.64773 8.41995 7.31065C8.67947 7.19908 8.88937 6.99665 9.01027 6.74133C9.13117 6.48602 9.15476 6.19537 9.07662 5.9239L7.60587 0.836837C7.53061 0.5767 7.36663 0.351132 7.1424 0.199296C6.91817 0.0474609 6.64784 -0.0210532 6.37836 0.00564971C4.09067 0.232759 2.23573 1.27418 0.865059 3.10113C0.130668 4.07993 -0.138113 5.18791 0.0663088 6.39429C1.60887 15.5067 8.49378 22.3916 17.6062 23.9342ZM17.3793 15.8758C17.4178 15.7836 17.4891 15.7089 17.5794 15.6661C17.6697 15.6233 17.7727 15.6155 17.8684 15.6442L22.9554 17.1152C23.0477 17.1408 23.1278 17.1984 23.1815 17.2777C23.2352 17.3571 23.259 17.4529 23.2485 17.5481C23.213 17.9112 23.152 18.2714 23.0661 18.6259L16.9032 16.9221C17.0675 16.5925 17.2241 16.2384 17.3793 15.876V15.8758ZM6.45247 0.751993C6.54768 0.741544 6.6435 0.765294 6.72282 0.818999C6.80213 0.872704 6.85976 0.952863 6.8854 1.04515L8.35615 6.13212C8.38484 6.22785 8.37704 6.33081 8.33427 6.42112C8.2915 6.51144 8.21678 6.58271 8.12454 6.62117C7.76197 6.77656 7.40768 6.93317 7.07796 7.0976L5.37406 0.934525C5.72882 0.848562 6.08917 0.787568 6.45247 0.751993ZM1.46497 3.55123C2.32325 2.40724 3.39204 1.60409 4.65537 1.14992L6.40334 7.47171C5.9127 7.78066 5.53147 8.12735 5.34397 8.54562C5.21772 8.82809 5.15201 9.13386 5.15106 9.44326C5.15012 9.75265 5.21396 10.0588 5.33848 10.3421C5.347 10.3614 5.35714 10.38 5.36881 10.3977C7.3594 13.4089 10.5913 16.6408 13.6025 18.6314C13.6202 18.6431 13.6388 18.6532 13.6581 18.6618C13.9414 18.7863 14.2476 18.8501 14.557 18.8492C14.8664 18.8482 15.1721 18.7825 15.4546 18.6563C15.873 18.4688 16.2198 18.0874 16.5289 17.5966L22.8507 19.3444C22.3965 20.6081 21.5933 21.677 20.4492 22.5353C19.6413 23.1416 18.7272 23.3635 17.7314 23.1949C8.93811 21.7062 2.29432 15.0624 0.805574 6.26909C0.637059 5.27327 0.858918 4.35921 1.46497 3.55123ZM17.5806 21.8382C17.5888 21.7897 17.6065 21.7432 17.6327 21.7015C17.6589 21.6598 17.693 21.6236 17.7332 21.5951C17.7733 21.5666 17.8187 21.5463 17.8667 21.5353C17.9147 21.5243 17.9644 21.5229 18.013 21.5311C18.5564 21.6231 18.9954 21.5166 19.4364 21.1857C19.646 21.029 19.8456 20.8591 20.0337 20.6771C20.0689 20.6422 20.1107 20.6146 20.1566 20.596C20.2025 20.5773 20.2516 20.568 20.3012 20.5684C20.3508 20.5689 20.3997 20.5791 20.4453 20.5986C20.4909 20.6181 20.5321 20.6465 20.5666 20.682C20.6012 20.7176 20.6283 20.7596 20.6465 20.8057C20.6647 20.8518 20.6736 20.901 20.6727 20.9506C20.6717 21.0002 20.6609 21.049 20.641 21.0944C20.621 21.1398 20.5923 21.1807 20.5564 21.2149C20.3454 21.4191 20.1216 21.6098 19.8865 21.7857C19.4169 22.1381 18.9159 22.3123 18.366 22.3123C18.2058 22.3119 18.0458 22.298 17.8879 22.2708C17.8393 22.2625 17.7929 22.2448 17.7511 22.2186C17.7094 22.1924 17.6733 22.1583 17.6447 22.1181C17.6162 22.078 17.5959 22.0326 17.5849 21.9846C17.5739 21.9365 17.5725 21.8868 17.5808 21.8382H17.5806ZM1.72995 6.11257C1.60423 5.37012 1.76276 4.71635 2.21492 4.11382C2.52429 3.70132 2.86423 3.27237 3.31179 2.96346C3.39365 2.90729 3.49444 2.88587 3.59206 2.90389C3.68968 2.92192 3.77618 2.97792 3.83258 3.05961C3.88898 3.14131 3.91068 3.24204 3.89293 3.33971C3.87518 3.43739 3.81943 3.52404 3.73789 3.58067C3.38318 3.82554 3.08745 4.20068 2.81492 4.56392C2.48403 5.00496 2.37748 5.44399 2.4695 5.98737C2.47772 6.03592 2.4763 6.08563 2.46532 6.13363C2.45434 6.18164 2.43401 6.22702 2.40549 6.26717C2.37697 6.30732 2.34082 6.34146 2.2991 6.36764C2.25739 6.39382 2.21093 6.41152 2.16237 6.41974C2.14154 6.42326 2.12045 6.42503 2.09932 6.42504C2.01077 6.42495 1.92511 6.39353 1.85751 6.33634C1.7899 6.27915 1.74472 6.19988 1.72995 6.11257Z" fill="#00507C"/>
</g>
<defs>
<clipPath id="clip0_1642_353">
<rect width="24" height="24" fill="white"/>
</clipPath>
</defs>
</svg>
