<svg width="20" height="20" viewBox="0 0 20 20" fill="none" xmlns="http://www.w3.org/2000/svg">
<g clip-path="url(#clip0_1740_799)">
<path d="M10.13 7.42383C9.00326 7.42383 8.08984 8.3372 8.08984 9.46395C8.08984 10.5906 9.00322 11.5041 10.13 11.5041C11.2567 11.5041 12.1701 10.5907 12.1701 9.46395C12.1701 8.3372 11.2567 7.42383 10.13 7.42383ZM10.13 10.5325C9.53977 10.5325 9.06132 10.0541 9.06132 9.4639C9.06132 8.8737 9.53977 8.39526 10.13 8.39526C10.7202 8.39526 11.1986 8.8737 11.1986 9.4639C11.1986 10.0541 10.7202 10.5325 10.13 10.5325Z" fill="#00507C"/>
<path d="M18.2645 2.76022L5.00379 1.25447C4.48914 1.1813 3.9677 1.33155 3.57089 1.66737C3.17412 1.97502 2.91979 2.43105 2.86657 2.93027L2.62372 4.92181H1.87077C0.802135 4.92181 0.000656343 5.86898 0.000656343 6.93762V16.871C-0.0262595 17.89 0.778008 18.738 1.79709 18.7649C1.82164 18.7655 1.84623 18.7657 1.87077 18.7653H15.2043C16.2729 18.7653 17.2444 17.9396 17.2444 16.871V16.4824C17.5757 16.4184 17.89 16.286 18.1673 16.0938C18.5608 15.7625 18.8128 15.2933 18.8716 14.7823L19.9888 4.92181C20.1027 3.85071 19.3341 2.88718 18.2645 2.76022ZM16.2729 16.871C16.2729 17.4053 15.7386 17.7939 15.2043 17.7939H1.87077C1.3881 17.808 0.985339 17.4282 0.971161 16.9456C0.970417 16.9207 0.970742 16.8958 0.972137 16.871V15.0737L4.73664 12.305C5.18886 11.9578 5.82582 11.9887 6.24243 12.3779L8.88972 14.7094C9.29173 15.047 9.79779 15.2356 10.3227 15.2437C10.7331 15.2488 11.1367 15.1395 11.4885 14.928L16.273 12.1593V16.871H16.2729ZM16.2729 11.0178L10.9784 14.1023C10.5237 14.3716 9.94827 14.3228 9.54541 13.9808L6.87386 11.625C6.10818 10.967 4.98906 10.9267 4.178 11.5278L0.972137 13.8594V6.93762C0.972137 6.4033 1.33645 5.89329 1.87077 5.89329H15.2043C15.7751 5.91695 16.2362 6.3675 16.2729 6.93762V11.0178ZM19.0183 4.79067C19.018 4.79388 19.0177 4.79713 19.0173 4.80034L17.8758 14.6608C17.8778 14.9165 17.7612 15.1587 17.5601 15.3166C17.4629 15.4137 17.2444 15.4623 17.2444 15.5109V6.93762C17.206 5.83119 16.3111 4.94687 15.2042 4.92181H3.59515L3.81373 3.02743C3.86115 2.78212 3.98941 2.55982 4.17805 2.39595C4.39105 2.24868 4.64859 2.18002 4.90668 2.20164L18.1431 3.7317C18.6771 3.78242 19.069 4.25654 19.0183 4.79067Z" fill="#00507C"/>
</g>
<defs>
<clipPath id="clip0_1740_799">
<rect width="20" height="20" fill="white"/>
</clipPath>
</defs>
</svg>
