<svg width="43" height="43" viewBox="0 0 43 43" fill="none" xmlns="http://www.w3.org/2000/svg">
<g clip-path="url(#clip0_1614_595)">
<path d="M29.0487 0.941406H3.7064C2.71555 0.941406 1.7845 1.32731 1.08533 2.02774C0.385488 2.72759 0 3.65847 0 4.64873V10.4049C0 10.5719 0.0663625 10.7321 0.184488 10.8502C0.302614 10.9684 0.462828 11.0347 0.629883 11.0347H6.15387V34.2057C6.15387 34.3727 6.22023 34.533 6.33836 34.6511C6.45649 34.7692 6.6167 34.8356 6.78375 34.8356H20.7901C20.9571 34.8356 21.1173 34.7692 21.2355 34.6511C21.3536 34.533 21.42 34.3727 21.42 34.2057C21.42 34.123 21.4037 34.0411 21.3721 33.9646C21.3404 33.8882 21.294 33.8187 21.2356 33.7602C21.1771 33.7017 21.1076 33.6553 21.0312 33.6237C20.9548 33.592 20.8729 33.5757 20.7902 33.5757H7.41364V4.64873C7.41364 4.58734 7.41196 4.52636 7.40902 4.46573C7.40801 4.44565 7.40616 4.42583 7.40482 4.40585C7.40242 4.36551 7.39934 4.32522 7.39558 4.28499C7.39331 4.26139 7.39012 4.23796 7.38735 4.21445C7.38307 4.17833 7.37887 4.14222 7.37358 4.10644C7.36996 4.08175 7.3656 4.05731 7.36148 4.03279C7.35586 3.99863 7.34975 3.96456 7.34317 3.93058C7.33817 3.90569 7.33291 3.88086 7.32738 3.85608C7.30778 3.7655 7.28458 3.67574 7.25785 3.587C7.25068 3.56277 7.2432 3.53864 7.23542 3.5146C7.22507 3.48266 7.21429 3.45085 7.20309 3.4192C7.19486 3.39585 7.18663 3.3725 7.17798 3.34941C7.16587 3.31749 7.15333 3.28574 7.14035 3.25417C7.13136 3.23208 7.12255 3.20991 7.11314 3.18799C7.09903 3.15523 7.08417 3.12307 7.06913 3.09082C7.05981 3.07066 7.05074 3.05042 7.04108 3.03043C7.02395 2.99524 7.00581 2.96073 6.98767 2.92621C6.97902 2.90983 6.97087 2.8932 6.96205 2.87691C6.90701 2.77623 6.84734 2.67814 6.78325 2.58297C6.77317 2.56802 6.76242 2.55349 6.75209 2.53862C6.72975 2.50654 6.70741 2.47446 6.68406 2.44305C6.67088 2.42533 6.65711 2.40803 6.64358 2.39056C6.62217 2.36284 6.60084 2.33513 6.57866 2.308C6.56371 2.28961 6.54826 2.27172 6.53289 2.25366C6.51811 2.23619 6.50375 2.21839 6.48863 2.20117H29.0487C30.3982 2.20117 31.4962 3.2991 31.4962 4.64873V11.7901C31.4962 12.1379 31.7782 12.42 32.1261 12.42C32.4741 12.42 32.756 12.1379 32.756 11.7901V4.64873C32.756 2.60455 31.0929 0.941406 29.0487 0.941406ZM6.15395 9.77497H1.25977V4.64873C1.25977 3.99491 1.51415 3.38048 1.97649 2.91815C2.43807 2.45581 3.05233 2.20117 3.7064 2.20117C5.05594 2.20117 6.15395 3.2991 6.15395 4.64873V9.77497ZM32.1261 32.1155C31.9591 32.1155 31.7989 32.1818 31.6807 32.3C31.5626 32.4181 31.4962 32.5783 31.4962 32.7454V33.5757H31.2677C31.1007 33.5757 30.9405 33.6421 30.8223 33.7602C30.7042 33.8783 30.6378 34.0385 30.6378 34.2056C30.6378 34.3727 30.7042 34.5329 30.8223 34.651C30.9405 34.7691 31.1007 34.8355 31.2677 34.8355H32.1261C32.2932 34.8355 32.4534 34.7691 32.5715 34.651C32.6896 34.5329 32.756 34.3727 32.756 34.2056V32.7454C32.756 32.5783 32.6896 32.4181 32.5715 32.3C32.4534 32.1818 32.2932 32.1155 32.1261 32.1155Z" fill="#00507C"/>
<path d="M22.9749 17.6972L21.9154 16.3203L20.7626 14.8219L22.9749 11.9469C23.0768 11.8145 23.1219 11.647 23.1003 11.4814C23.0787 11.3157 22.9922 11.1654 22.8598 11.0635C22.7274 10.9616 22.5599 10.9165 22.3943 10.9381C22.2286 10.9597 22.0783 11.0462 21.9764 11.1786L19.9676 13.7891L18.0152 11.2519C19.6033 11.0153 20.8256 9.64279 20.8256 7.98989C20.8256 6.17113 19.3459 4.69141 17.5272 4.69141H14.809C14.642 4.69141 14.4817 4.75777 14.3636 4.87589C14.2455 4.99402 14.1791 5.15423 14.1791 5.32129V16.0087C14.1791 16.3566 14.4611 16.6386 14.809 16.6386C15.157 16.6386 15.4389 16.3566 15.4389 16.0087V11.2884H16.4534L19.1726 14.8224L16.9604 17.6972C16.8888 17.7904 16.8446 17.9019 16.833 18.0189C16.8213 18.1359 16.8426 18.2538 16.8945 18.3593C16.9464 18.4648 17.0268 18.5537 17.1266 18.6159C17.2264 18.6782 17.3416 18.7112 17.4591 18.7113C17.5557 18.7115 17.651 18.6894 17.7377 18.6468C17.8244 18.6041 17.9 18.5421 17.9588 18.4655L19.9677 15.855L21.1982 17.4541L21.9761 18.4652C22.0264 18.5311 22.0892 18.5865 22.1609 18.6282C22.2327 18.6698 22.3119 18.6968 22.3942 18.7077C22.4764 18.7187 22.56 18.7132 22.6401 18.6918C22.7202 18.6703 22.7953 18.6332 22.861 18.5827C22.9268 18.5321 22.9819 18.4691 23.0233 18.3972C23.0646 18.3252 23.0913 18.2459 23.1019 18.1636C23.1125 18.0813 23.1067 17.9978 23.0849 17.9177C23.0631 17.8377 23.0257 17.7628 22.9749 17.6972ZM16.7845 10.0286H15.4387V5.95117H17.527C18.6511 5.95117 19.5656 6.86576 19.5656 7.98989C19.5658 9.11402 18.6512 10.0286 17.5271 10.0286H16.7845ZM25.9476 22.0042H10.9111C10.7441 22.0042 10.5839 22.0706 10.4657 22.1887C10.3476 22.3068 10.2812 22.467 10.2812 22.6341C10.2812 22.8011 10.3476 22.9613 10.4657 23.0795C10.5839 23.1976 10.7441 23.264 10.9111 23.264H25.9476C26.1147 23.264 26.2749 23.1976 26.393 23.0795C26.5111 22.9613 26.5775 22.8011 26.5775 22.6341C26.5775 22.467 26.5111 22.3068 26.393 22.1887C26.2749 22.0706 26.1147 22.0042 25.9476 22.0042ZM23.8499 26.2982H10.9111C10.7441 26.2982 10.5839 26.3646 10.4657 26.4827C10.3476 26.6008 10.2812 26.7611 10.2812 26.9281C10.2812 27.0952 10.3476 27.2554 10.4657 27.3735C10.5839 27.4916 10.7441 27.558 10.9111 27.558H23.8499C24.017 27.558 24.1772 27.4916 24.2953 27.3735C24.4135 27.2554 24.4798 27.0952 24.4798 26.9281C24.4798 26.7611 24.4135 26.6008 24.2953 26.4827C24.1772 26.3646 24.017 26.2982 23.8499 26.2982ZM42.6853 16.8859L41.2168 16.0381C41.934 14.1881 41.2151 12.0344 39.4446 11.0122C37.4883 9.88273 34.9781 10.5554 33.8489 12.5115L25.6586 26.6976C25.6172 26.7692 25.5904 26.8483 25.5795 26.9303C25.5687 27.0123 25.5742 27.0957 25.5956 27.1756C25.617 27.2555 25.654 27.3304 25.7043 27.396C25.7547 27.4616 25.8175 27.5167 25.8892 27.558L26.1362 27.7006L21.8193 36.1364C21.8088 36.1572 21.7995 36.1786 21.7914 36.2004C21.789 36.2068 21.7869 36.2133 21.7847 36.2197C21.779 36.2363 21.774 36.2531 21.7697 36.2701C21.768 36.2769 21.7662 36.2837 21.7647 36.2906C21.7596 36.3139 21.7555 36.3373 21.7532 36.3611L21.2556 41.3685C21.2468 41.456 21.2565 41.5444 21.284 41.628C21.3116 41.7115 21.3563 41.7884 21.4153 41.8536C21.4744 41.9188 21.5464 41.971 21.6269 42.0066C21.7073 42.0423 21.7943 42.0607 21.8823 42.0607C22.0141 42.0607 22.1426 42.0194 22.2497 41.9424L26.3374 39.0078C26.3727 38.982 26.4051 38.9526 26.4343 38.9201C26.4579 38.8947 26.4794 38.8674 26.4986 38.8385L26.4988 38.8382L26.4989 38.838L26.4996 38.8369L31.646 30.8818L31.893 31.0245C31.9647 31.0658 32.0437 31.0927 32.1258 31.1035C32.2078 31.1143 32.2911 31.1088 32.371 31.0874C32.4509 31.066 32.5258 31.029 32.5914 30.9787C32.6571 30.9283 32.7121 30.8655 32.7535 30.7938L40.6287 17.1533L41.5097 17.662L37.9843 23.768C37.9021 23.9126 37.8804 24.0839 37.924 24.2444C37.9676 24.4049 38.0729 24.5417 38.217 24.6248C38.361 24.708 38.5321 24.7308 38.6929 24.6883C38.8537 24.6458 38.9912 24.5414 39.0753 24.3979L42.9156 17.7464C42.957 17.6748 42.9839 17.5957 42.9947 17.5137C43.0055 17.4317 43.0001 17.3483 42.9787 17.2684C42.9573 17.1885 42.9204 17.1136 42.8701 17.048C42.8197 16.9823 42.7569 16.9273 42.6853 16.8859ZM22.647 40.1064L22.9103 37.4568L24.81 38.5536L22.647 40.1064ZM25.7665 37.6512L23.2135 36.1773L27.2285 28.3313L30.5538 30.2512L25.7665 37.6512ZM39.8528 15.9781L31.9776 29.6186L31.7625 29.4944C31.7608 29.4934 31.7593 29.4922 31.7577 29.4913L27.2846 26.9088C27.2825 26.9076 27.2804 26.9067 27.2783 26.9055L27.0644 26.7821L34.9397 13.1415C35.7218 11.787 37.46 11.3213 38.8146 12.1033C40.1691 12.8853 40.6349 14.6236 39.8528 15.9781Z" fill="#00507C"/>
</g>
<defs>
<clipPath id="clip0_1614_595">
<rect width="43" height="43" fill="white"/>
</clipPath>
</defs>
</svg>
