<svg width="25" height="19" viewBox="0 0 25 19" fill="none" xmlns="http://www.w3.org/2000/svg">
<path d="M19.4764 8.19203H18.0842C17.8522 8.19203 17.6623 8.38188 17.6623 8.61391C17.6623 8.84594 17.8522 9.03578 18.0842 9.03578H19.4764C19.6663 9.03578 19.8223 9.19187 19.8223 9.38172V15.4398C19.8223 15.6297 19.6663 15.7858 19.4764 15.7858H18.0842C17.8522 15.7858 17.6623 15.9756 17.6623 16.2077C17.6623 16.4397 17.8522 16.6295 18.0842 16.6295H19.4764C20.1303 16.6295 20.6661 16.098 20.6661 15.4398V9.38172C20.6661 8.72781 20.1345 8.19203 19.4764 8.19203ZM3.42406 9.03578H4.81625C5.04828 9.03578 5.23813 8.84594 5.23813 8.61391C5.23813 8.38188 5.04828 8.19203 4.81625 8.19203H3.42406C2.77016 8.19203 2.23438 8.72359 2.23438 9.38172V15.4398C2.23438 16.0938 2.76594 16.6295 3.42406 16.6295H4.81625C5.04828 16.6295 5.23813 16.4397 5.23813 16.2077C5.23813 15.9756 5.04828 15.7858 4.81625 15.7858H3.42406C3.23422 15.7858 3.07813 15.6297 3.07813 15.4398V9.38172C3.07813 9.19187 3.23422 9.03578 3.42406 9.03578ZM11.87 8.91766V8.60547C11.87 8.37344 11.6802 8.18359 11.4481 8.18359C11.2161 8.18359 11.0263 8.37344 11.0263 8.60547V8.93875C9.92094 9.12859 9.09406 9.9175 9.09406 10.8583C9.09406 11.7991 9.91672 12.5795 11.0263 12.7694V15.0306C10.3133 14.9167 9.76484 14.4653 9.76484 13.938C9.76484 13.7059 9.575 13.5161 9.34297 13.5161C9.11094 13.5161 8.92109 13.7059 8.92109 13.938C8.92109 14.9294 9.84078 15.7478 11.0263 15.8786V16.1908C11.0263 16.4228 11.2161 16.6127 11.4481 16.6127C11.6802 16.6127 11.87 16.4228 11.87 16.1908V15.8575C12.9753 15.6677 13.8064 14.8787 13.8064 13.938C13.8064 12.9972 12.9922 12.2125 11.87 12.0269V9.76563C12.583 9.87531 13.1314 10.3309 13.1314 10.8583C13.1314 11.0903 13.3213 11.2802 13.5533 11.2802C13.7853 11.2802 13.9752 11.0903 13.9752 10.8583C13.9752 9.86688 13.0555 9.04844 11.87 8.91766ZM9.93781 10.8583C9.93781 10.3773 10.4019 9.95547 11.0263 9.80359V11.913C10.3977 11.7611 9.93781 11.3392 9.93781 10.8583ZM12.9627 13.9422C12.9627 14.4231 12.4986 14.8408 11.87 14.9969V12.8875C12.5028 13.0394 12.9627 13.4613 12.9627 13.9464V13.9422Z" fill="#00507C"/>
<path d="M24.2577 10.3892L21.4522 1.63532C21.4046 1.48679 21.3282 1.3491 21.2274 1.23011C21.1266 1.11112 21.0033 1.01317 20.8646 0.941864C20.7259 0.870554 20.5745 0.827283 20.4191 0.814525C20.2636 0.801766 20.1072 0.81977 19.9587 0.867508L2.24422 6.61766H1.87719C1.22328 6.61766 0.6875 7.14923 0.6875 7.80735V17C0.6875 17.6539 1.21906 18.1897 1.87719 18.1897H21.0261C21.68 18.1897 22.2158 17.6581 22.2158 17V12.275C22.2453 12.275 22.2748 12.2708 22.3044 12.2624L23.4856 11.8827C23.7853 11.7862 24.0345 11.5748 24.1785 11.2948C24.3224 11.0148 24.3494 10.6891 24.2534 10.3892H24.2577ZM21.372 17C21.372 17.1899 21.2159 17.3459 21.0261 17.3459H1.87719C1.68734 17.3459 1.53125 17.1899 1.53125 17V7.80735C1.53125 7.61751 1.68734 7.46141 1.87719 7.46141H21.0261C21.2159 7.46141 21.372 7.61751 21.372 7.80735V17ZM23.2325 11.0811L22.2158 11.4059V7.80735C22.2158 7.28001 21.8698 6.83704 21.3931 6.68095L20.4566 3.60126C20.3595 3.29751 20.1528 3.05282 19.8702 2.90516C19.5898 2.76062 19.2636 2.73331 18.9631 2.82923L17.6384 3.25532C17.4148 3.32704 17.2925 3.56329 17.3642 3.78688C17.4359 4.01048 17.6722 4.1286 17.8958 4.0611L19.2205 3.63501C19.3061 3.60769 19.399 3.6149 19.4794 3.65509C19.5598 3.69528 19.6213 3.76528 19.6508 3.85016L20.4903 6.61345H14.3141C13.8922 6.01438 13.0822 5.71063 12.2089 5.80766L12.1119 5.50813C12.0402 5.28876 11.8039 5.16641 11.5803 5.23391C11.3567 5.30563 11.2344 5.54188 11.3061 5.76548L11.3863 6.01438C11.0361 6.15782 10.7239 6.36032 10.4708 6.61345H4.97375L20.2119 1.66907C20.3005 1.63954 20.3933 1.64798 20.4734 1.69016C20.5536 1.73235 20.6169 1.80407 20.6422 1.89266L23.4477 10.6466C23.5067 10.828 23.4055 11.022 23.2241 11.0811H23.2325Z" fill="#00507C"/>
</svg>
