<svg width="43" height="43" viewBox="0 0 43 43" fill="none" xmlns="http://www.w3.org/2000/svg">
<g clip-path="url(#clip0_1596_494)">
<path d="M17.6656 20.7133C20.5112 20.7133 22.975 19.6927 24.9886 17.679C27.0016 15.6657 28.0226 13.2023 28.0226 10.3563C28.0226 7.51134 27.0019 5.04758 24.9883 3.0336C22.9746 1.0206 20.5109 0 17.6656 0C14.8196 0 12.3562 1.0206 10.3429 3.03393C8.32953 5.04725 7.30859 7.51101 7.30859 10.3563C7.30859 13.2023 8.32953 15.666 10.3429 17.6793C12.3568 19.6923 14.8206 20.7133 17.6656 20.7133ZM12.1249 4.81564C13.6698 3.27079 15.482 2.51985 17.6656 2.51985C19.8488 2.51985 21.6614 3.27079 23.2066 4.81564C24.7514 6.36082 25.5027 8.17337 25.5027 10.3563C25.5027 12.5399 24.7514 14.3521 23.2066 15.8973C21.6614 17.4425 19.8488 18.1934 17.6656 18.1934C15.4826 18.1934 13.6704 17.4421 12.1249 15.8973C10.5797 14.3524 9.82845 12.5399 9.82845 10.3563C9.82845 8.17337 10.5797 6.36082 12.1249 4.81564Z" fill="url(#paint0_linear_1596_494)"/>
<path d="M35.7882 33.0637C35.7301 32.2258 35.6127 31.3118 35.4398 30.3467C35.2652 29.3743 35.0405 28.4551 34.7715 27.6149C34.4933 26.7465 34.1157 25.889 33.6482 25.0672C33.1637 24.2142 32.5941 23.4715 31.9551 22.8603C31.2868 22.2209 30.4686 21.7068 29.5225 21.3318C28.5796 20.9588 27.5347 20.7699 26.417 20.7699C25.9781 20.7699 25.5536 20.95 24.7337 21.4837C24.2292 21.8128 23.639 22.1933 22.9802 22.6142C22.4169 22.9731 21.6539 23.3094 20.7113 23.6138C19.7918 23.9114 18.8581 24.0623 17.9362 24.0623C17.015 24.0623 16.0814 23.9114 15.1611 23.6138C14.2196 23.3097 13.4562 22.9735 12.8939 22.6146C12.2414 22.1976 11.6509 21.817 11.1388 21.4834C10.3196 20.9496 9.89507 20.7695 9.45612 20.7695C8.33807 20.7695 7.29352 20.9588 6.35099 21.3322C5.40551 21.7065 4.58699 22.2206 3.91807 22.8606C3.279 23.4721 2.70948 24.2145 2.22526 25.0672C1.75842 25.889 1.38049 26.7462 1.10229 27.6152C0.833611 28.4554 0.608887 29.3743 0.434357 30.3467C0.261139 31.3105 0.14402 32.2248 0.0859528 33.0647C0.0288696 33.8858 0 34.7404 0 35.6039C0 37.8485 0.713539 39.6657 2.12061 41.0058C3.51028 42.3282 5.34875 42.9988 7.58517 42.9988H28.2899C30.5257 42.9988 32.3642 42.3282 33.7542 41.0058C35.1616 39.6666 35.8751 37.8488 35.8751 35.6036C35.8748 34.7372 35.8456 33.8826 35.7882 33.0637ZM32.0167 39.1801C31.0985 40.0541 29.8794 40.4789 28.2896 40.4789H7.58517C5.99504 40.4789 4.77596 40.0541 3.85803 39.1804C2.9575 38.3232 2.51986 37.153 2.51986 35.6039C2.51986 34.7982 2.54643 34.0026 2.59958 33.2389C2.65141 32.4896 2.75738 31.6665 2.91452 30.7919C3.06969 29.9281 3.26719 29.1174 3.50208 28.3836C3.72746 27.6799 4.03486 26.9831 4.41607 26.3118C4.77989 25.6721 5.1985 25.1233 5.66042 24.681C6.09248 24.2673 6.63706 23.9288 7.27876 23.6749C7.87222 23.44 8.53918 23.3114 9.26321 23.292C9.35146 23.3389 9.50861 23.4285 9.76318 23.5945C10.2812 23.9321 10.8783 24.3172 11.5383 24.7388C12.2824 25.2131 13.241 25.6416 14.3863 26.0113C15.5571 26.3899 16.7513 26.5822 17.9366 26.5822C19.1219 26.5822 20.3163 26.3899 21.4865 26.0117C22.6328 25.6413 23.5911 25.2131 24.3361 24.7381C25.0116 24.3064 25.5919 23.9324 26.11 23.5945C26.3645 23.4288 26.5217 23.3389 26.6099 23.292C27.3343 23.3114 28.0012 23.44 28.595 23.6749C29.2364 23.9288 29.781 24.2677 30.2131 24.681C30.675 25.1229 31.0936 25.6718 31.4574 26.3122C31.8389 26.9831 32.1467 27.6802 32.3717 28.3832C32.6069 29.1181 32.8048 29.9284 32.9596 30.7915C33.1164 31.6678 33.2227 32.4912 33.2745 33.2392V33.2399C33.328 34.0007 33.3549 34.7959 33.3552 35.6039C33.3549 37.1533 32.9173 38.3232 32.0167 39.1801Z" fill="url(#paint1_linear_1596_494)"/>
</g>
<defs>
<linearGradient id="paint0_linear_1596_494" x1="7.30859" y1="10.3566" x2="28.0226" y2="10.3566" gradientUnits="userSpaceOnUse">
<stop stop-color="#F53D47" stop-opacity="0.5"/>
<stop offset="0.495" stop-color="#1AB1DD" stop-opacity="0.5"/>
<stop offset="1" stop-color="#00507C" stop-opacity="0.78"/>
</linearGradient>
<linearGradient id="paint1_linear_1596_494" x1="0" y1="31.8842" x2="35.8751" y2="31.8842" gradientUnits="userSpaceOnUse">
<stop stop-color="#F53D47" stop-opacity="0.5"/>
<stop offset="0.495" stop-color="#1AB1DD" stop-opacity="0.5"/>
<stop offset="1" stop-color="#00507C" stop-opacity="0.78"/>
</linearGradient>
<clipPath id="clip0_1596_494">
<rect width="43" height="43" fill="white"/>
</clipPath>
</defs>
</svg>
