<svg width="24" height="24" viewBox="0 0 24 24" fill="none" xmlns="http://www.w3.org/2000/svg">
<g clip-path="url(#clip0_1735_238)">
<path d="M20.7835 17.8444C20.3816 17.5354 19.8136 17.6217 19.5147 18.037C19.3495 18.2665 19.1751 18.4888 18.9918 18.7031C18.6602 19.091 18.6954 19.6835 19.0706 20.0265C19.2361 20.1782 19.4496 20.2618 19.6708 20.2616C19.9216 20.2616 20.1714 20.1546 20.3505 19.945C20.5675 19.6911 20.7741 19.4279 20.9698 19.1561C21.2687 18.7408 21.1853 18.1534 20.7835 17.8444ZM22.2999 13.4478C21.8109 13.3377 21.3276 13.6585 21.2211 14.1644C21.1622 14.4436 21.092 14.7201 21.0104 14.9932C20.8626 15.4879 21.1306 16.0128 21.6091 16.1657C21.6982 16.1941 21.7884 16.2077 21.8771 16.2077C22.2643 16.2077 22.6228 15.9492 22.7431 15.5467C22.8399 15.2227 22.9233 14.8945 22.9931 14.5632C23.0996 14.0573 22.7893 13.5579 22.2999 13.4478ZM16.4189 20.8469C16.1773 20.9863 15.9302 21.115 15.6781 21.2328C15.2217 21.4459 15.0188 22.0012 15.2249 22.4731C15.3763 22.8198 15.7063 23.025 16.0518 23.025C16.1766 23.025 16.3034 22.9982 16.4245 22.9417C16.7234 22.802 17.0165 22.6493 17.303 22.484C17.7403 22.2316 17.8968 21.6605 17.6526 21.2084C17.4086 20.7564 16.8562 20.5945 16.4189 20.8469ZM10.7 4.5V11.6117L7.37494 15.0494C7.02085 15.4155 7.02085 16.0091 7.37494 16.3752C7.45905 16.4624 7.559 16.5316 7.66904 16.5787C7.77909 16.6258 7.89705 16.65 8.01616 16.6498C8.13527 16.65 8.25323 16.6258 8.36327 16.5787C8.47331 16.5315 8.57326 16.4624 8.65738 16.3752L12.248 12.6629C12.418 12.4871 12.5135 12.2486 12.5135 12V4.5C12.5135 3.98222 12.1076 3.5625 11.6068 3.5625C11.106 3.5625 10.7 3.98222 10.7 4.5Z" fill="#00507C"/>
<path d="M22.3064 2.01562C21.8055 2.01562 21.3996 2.43534 21.3996 2.95312V5.55638C19.289 2.13412 15.6032 0 11.6066 0C8.50634 0 5.59169 1.24823 3.39945 3.51469C1.20731 5.78123 0 8.79469 0 12C0 15.2053 1.20731 18.2188 3.39945 20.4853C5.59169 22.7518 8.50634 24 11.6066 24C11.6142 24 11.6216 23.999 11.6292 23.9988C11.6368 23.999 11.6442 24 11.6519 24C11.9787 24 12.3087 23.9858 12.6329 23.9577C13.1319 23.9145 13.5026 23.4612 13.4608 22.9453C13.419 22.4293 12.9812 22.0459 12.4815 22.0893C12.2075 22.113 11.9284 22.125 11.6519 22.125C11.6442 22.125 11.6368 22.126 11.6292 22.1262C11.6216 22.126 11.6142 22.125 11.6066 22.125C6.20665 22.125 1.81352 17.583 1.81352 12C1.81352 6.41705 6.20665 1.875 11.6066 1.875C15.0866 1.875 18.2874 3.7928 20.0365 6.84375H17.5433C17.0425 6.84375 16.6365 7.26347 16.6365 7.78125C16.6365 8.29903 17.0425 8.71875 17.5433 8.71875H20.3115C20.8439 8.71939 21.3661 8.56765 21.8202 8.28033C21.8482 8.26384 21.8754 8.24582 21.9016 8.22633C22.6908 7.68956 23.2131 6.76627 23.2131 5.71875V2.95312C23.2131 2.43534 22.8072 2.01562 22.3064 2.01562Z" fill="#00507C"/>
</g>
<defs>
<clipPath id="clip0_1735_238">
<rect width="23.2131" height="24" fill="white"/>
</clipPath>
</defs>
</svg>
