<svg width="24" height="25" viewBox="0 0 24 25" fill="none" xmlns="http://www.w3.org/2000/svg">
<path d="M23.0162 8.1186L12.9722 3.8686C12.6635 3.73876 12.332 3.67187 11.9972 3.67188C11.6623 3.67187 11.3308 3.73876 11.0222 3.8686L0.978156 8.1186C0.706676 8.23343 0.475046 8.4257 0.312197 8.6714C0.149348 8.9171 0.0625 9.20533 0.0625 9.5001C0.0625 9.79487 0.149348 10.0831 0.312197 10.3288C0.475046 10.5745 0.706676 10.7668 0.978156 10.8816L4.49816 12.3701V17.1566C4.49545 17.5864 4.60467 18.0095 4.81508 18.3843C5.02548 18.7591 5.32982 19.0726 5.69816 19.2941C7.60962 20.4117 9.78396 21.0006 11.9982 21.0006C14.2123 21.0006 16.3867 20.4117 18.2982 19.2941C18.6665 19.0726 18.9708 18.7591 19.1812 18.3843C19.3916 18.0095 19.5009 17.5864 19.4982 17.1566V12.3701L20.9982 11.7351V14.1061C20.7973 14.1931 20.6229 14.3315 20.4927 14.5074C20.3624 14.6833 20.2809 14.8904 20.2563 15.1079C20.2317 15.3254 20.2649 15.5455 20.3526 15.7461C20.4402 15.9466 20.5793 16.1205 20.7557 16.2501C20.5988 16.3655 20.4711 16.5161 20.383 16.6898C20.2949 16.8634 20.2487 17.0553 20.2482 17.2501V18.5001C20.2482 18.6327 20.3008 18.7599 20.3946 18.8537C20.4884 18.9474 20.6155 19.0001 20.7482 19.0001H22.2482C22.3808 19.0001 22.5079 18.9474 22.6017 18.8537C22.6955 18.7599 22.7482 18.6327 22.7482 18.5001V17.2501C22.7476 17.0553 22.7015 16.8634 22.6133 16.6898C22.5252 16.5161 22.3975 16.3655 22.2407 16.2501C22.417 16.1205 22.5561 15.9466 22.6437 15.7461C22.7314 15.5455 22.7647 15.3254 22.7401 15.1079C22.7155 14.8904 22.6339 14.6833 22.5036 14.5074C22.3734 14.3315 22.199 14.1931 21.9982 14.1061V11.3121L23.0162 10.8816C23.2876 10.7668 23.5193 10.5745 23.6821 10.3288C23.845 10.0831 23.9318 9.79487 23.9318 9.5001C23.9318 9.20533 23.845 8.9171 23.6821 8.6714C23.5193 8.4257 23.2876 8.23343 23.0162 8.1186ZM21.7482 15.2501C21.7482 15.2995 21.7335 15.3479 21.706 15.389C21.6786 15.4301 21.6395 15.4621 21.5938 15.4811C21.5481 15.5 21.4979 15.5049 21.4494 15.4953C21.4009 15.4856 21.3563 15.4618 21.3214 15.4269C21.2864 15.3919 21.2626 15.3474 21.253 15.2989C21.2433 15.2504 21.2483 15.2001 21.2672 15.1544C21.2861 15.1087 21.3181 15.0697 21.3593 15.0422C21.4004 15.0148 21.4487 15.0001 21.4982 15.0001C21.5645 15.0001 21.628 15.0264 21.6749 15.0733C21.7218 15.1202 21.7482 15.1838 21.7482 15.2501ZM21.7482 18.0001H21.2482V17.2501C21.2482 17.1838 21.2745 17.1202 21.3214 17.0733C21.3683 17.0264 21.4319 17.0001 21.4982 17.0001C21.5645 17.0001 21.628 17.0264 21.6749 17.0733C21.7218 17.1202 21.7482 17.1838 21.7482 17.2501V18.0001ZM18.4982 17.1566C18.5011 17.4123 18.4373 17.6644 18.3133 17.888C18.1892 18.1117 18.0091 18.2992 17.7907 18.4321C16.0329 19.4589 14.0338 20.0001 11.9982 20.0001C9.96248 20.0001 7.96338 19.4589 6.20566 18.4321C5.98718 18.2992 5.80706 18.1117 5.68301 17.888C5.55897 17.6644 5.49526 17.4123 5.49816 17.1566V12.7931L11.0242 15.1311C11.3328 15.2611 11.6643 15.328 11.9992 15.328C12.334 15.328 12.6655 15.2611 12.9742 15.1311L18.4982 12.7931V17.1566ZM22.6267 9.9606L12.5827 14.2106C12.3976 14.2883 12.1989 14.3284 11.9982 14.3284C11.7974 14.3284 11.5987 14.2883 11.4137 14.2106L1.36966 9.9606C1.27916 9.92232 1.20195 9.85823 1.14767 9.77633C1.09339 9.69443 1.06444 9.59835 1.06444 9.5001C1.06444 9.40184 1.09339 9.30577 1.14767 9.22387C1.20195 9.14197 1.27916 9.07788 1.36966 9.0396L11.4137 4.7896C11.5987 4.71171 11.7974 4.67159 11.9982 4.67159C12.1989 4.67159 12.3976 4.71171 12.5827 4.7896L22.6267 9.0396C22.7171 9.07788 22.7944 9.14197 22.8486 9.22387C22.9029 9.30577 22.9319 9.40184 22.9319 9.5001C22.9319 9.59835 22.9029 9.69443 22.8486 9.77633C22.7944 9.85823 22.7171 9.92232 22.6267 9.9606Z" fill="#00507C"/>
</svg>
