<svg width="24" height="24" viewBox="0 0 24 24" fill="none" xmlns="http://www.w3.org/2000/svg">
<path fill-rule="evenodd" clip-rule="evenodd" d="M8.00605 0.666328C8.00608 0.489775 8.07621 0.320458 8.20103 0.195585C8.32584 0.0707123 8.49512 0.000499242 8.67167 0.000375L15.3275 0C15.5041 0.000409405 15.6733 0.0708169 15.7981 0.19579C15.9229 0.320764 15.993 0.490107 15.9931 0.666703V2.31281H8.00605V0.666328ZM18.9495 23.0465C18.9326 23.306 18.817 23.5493 18.6266 23.7264C18.4361 23.9036 18.1851 24.0013 17.925 23.9994H5.99764C5.73761 23.9987 5.48746 23.8997 5.29745 23.7222C5.10743 23.5447 4.9916 23.3018 4.97323 23.0424L3.95258 8.11191H20.0389L18.9498 23.0463L18.9495 23.0465ZM21.6012 6.75966H2.39844V5.21278C2.39872 4.80252 2.5618 4.40914 2.85187 4.11901C3.14194 3.82888 3.53529 3.66572 3.94555 3.66534L20.0539 3.66483C20.4641 3.66546 20.8573 3.82877 21.1473 4.11893C21.4373 4.40909 21.6004 4.80242 21.6007 5.21264V6.75952L21.6012 6.75966ZM8.90788 20.4402C8.90788 20.5289 8.92536 20.6169 8.95934 20.6989C8.99331 20.7809 9.04311 20.8554 9.10588 20.9182C9.16866 20.981 9.24318 21.0308 9.3252 21.0647C9.40722 21.0987 9.49513 21.1162 9.58391 21.1162C9.67268 21.1162 9.76059 21.0987 9.84261 21.0647C9.92463 21.0308 9.99916 20.981 10.0619 20.9182C10.1247 20.8554 10.1745 20.7809 10.2085 20.6989C10.2425 20.6169 10.2599 20.5289 10.2599 20.4402V10.9598C10.2585 10.7816 10.1867 10.611 10.0602 10.4855C9.9336 10.3599 9.76255 10.2894 9.58426 10.2893C9.40596 10.2892 9.23486 10.3596 9.10822 10.4851C8.98158 10.6106 8.90966 10.7811 8.90811 10.9594V20.4402H8.90788ZM13.7313 20.4402C13.7313 20.6195 13.8025 20.7915 13.9293 20.9183C14.0561 21.0451 14.2281 21.1163 14.4074 21.1163C14.5868 21.1163 14.7587 21.0451 14.8855 20.9183C15.0123 20.7915 15.0836 20.6195 15.0836 20.4402V10.9598C15.0821 10.7815 15.0103 10.611 14.8838 10.4854C14.7572 10.3598 14.5861 10.2893 14.4078 10.2892C14.2295 10.2891 14.0583 10.3595 13.9317 10.4851C13.805 10.6106 13.7331 10.7811 13.7315 10.9594L13.7313 20.4402Z" fill="#FC0005"/>
</svg>
